<svg width="257" height="47" viewBox="0 0 257 47" fill="none" xmlns="http://www.w3.org/2000/svg">
<path fill-rule="evenodd" clip-rule="evenodd" d="M51.8985 6.85956H55.4492L64.5394 33.7821H61.184L58.4127 25.2761H48.5037L45.7718 33.7821H42.8447L51.8985 6.85956ZM49.1666 23.1299H57.7105L53.4968 9.90323H53.4196L49.1666 23.1299ZM78.8967 33.546C77.5301 33.9758 76.3601 34.2104 74.721 34.2104C67.7769 34.2104 65.4355 29.7228 65.4355 23.9094C65.4355 17.8235 68.4398 14.7798 73.0046 14.7798C77.6088 14.7798 79.4038 17.5889 79.4038 20.9429H76.0483C76.0483 19.4612 76.0483 16.3388 72.8094 16.3388C69.5311 16.3388 68.6744 20.1241 68.6744 23.2057C68.6744 27.1847 70.3514 32.3353 75.7365 32.3353C77.2576 32.3353 77.8433 32.1021 78.8967 31.8282V33.546ZM94.2681 33.546C92.9015 33.9758 91.7315 34.2104 90.0938 34.2104C83.1483 34.2104 80.8069 29.7228 80.8069 23.9094C80.8069 17.8235 83.8112 14.7798 88.376 14.7798C92.9801 14.7798 94.7752 17.5889 94.7752 20.9429H91.4197C91.4197 19.4612 91.4197 16.3388 88.1808 16.3388C84.9025 16.3388 84.0458 20.1241 84.0458 23.2057C84.0458 27.1847 85.7228 32.3353 91.1079 32.3353C92.629 32.3353 93.2147 32.1021 94.2681 31.8282V33.546ZM96.2176 24.6904C96.2176 18.7604 98.559 14.7798 104.1 14.7798C109.64 14.7798 112.175 18.7589 112.175 24.6904C112.175 30.6976 109.64 34.2104 104.1 34.2104C98.559 34.2104 96.2176 30.6976 96.2176 24.6904ZM104.1 32.65C108.118 32.65 108.937 28.6301 108.937 24.8069C108.937 20.7492 108.118 16.3403 104.1 16.3403C100.121 16.3403 99.4565 20.7492 99.4565 24.8069C99.4565 28.6301 100.121 32.65 104.1 32.65ZM126.886 29.2551H126.807C125.014 33.0783 123.842 34.2104 120.136 34.2104C117.054 34.2104 115.688 30.8943 115.688 28.4742V15.2082H118.575V27.2255C118.575 29.2158 119.394 31.8297 121.891 31.8297C125.286 31.8297 126.807 26.7578 126.807 23.1678V15.2096H129.697V33.7821H126.886V29.2551ZM134.844 15.2096H137.653V19.7744H137.73C138.863 17.433 140.735 14.7798 144.404 14.7798C147.642 14.7798 148.852 17.5889 148.852 19.6564V33.7806H145.967V21.7632C145.967 19.7744 145.967 17.1591 143.391 17.1591C139.489 17.1591 137.73 22.2309 137.73 25.821V33.7806H134.846V15.2096H134.844ZM163.13 34.0545C162.194 34.2104 161.608 34.2104 160.828 34.2104C157.007 34.2104 155.248 32.8831 155.287 29.5276V17.0047H152.009V15.2096H155.287V10.8401L158.175 9.0844V15.2096H163.246V17.0047H158.175V28.008C158.136 30.192 158.175 32.3382 161.373 32.3382C162.349 32.3382 162.779 32.2216 163.129 32.105V34.0545H163.13ZM172.259 6.85956H175.811L184.9 33.7821H181.544L178.776 25.2761H168.864L166.135 33.7821H163.206L172.259 6.85956ZM169.527 23.1299H178.072L173.857 9.90323H173.78L169.527 23.1299ZM189.544 18.5651H189.625C190.168 17.433 191.73 14.7798 195.005 14.7798C199.416 14.7798 201.795 18.6409 201.795 24.6117C201.795 31.0881 198.791 34.2104 193.955 34.2104C186.658 34.2104 186.658 27.8506 186.658 24.8448V6.85956H189.543V18.5651H189.544ZM193.913 32.3367C197.54 32.3367 198.557 28.5529 198.557 24.8069C198.557 21.2169 197.698 16.6521 194.267 16.6521C190.714 16.6521 189.546 21.7239 189.546 25.1187C189.544 28.4756 190.207 32.3367 193.913 32.3367ZM205.423 6.85956H208.701V10.3709H205.423V6.85956ZM205.62 15.2096H208.504V33.7821H205.62V15.2096ZM213.732 6.85956H216.618V33.7821H213.732V6.85956ZM221.733 6.85956H225.008V10.3709H221.733V6.85956ZM221.925 15.2096H224.813V33.7821H221.925V15.2096ZM239.211 34.0545C238.274 34.2104 237.691 34.2104 236.909 34.2104C233.087 34.2104 231.328 32.8831 231.368 29.5276V17.0047H228.089V15.2096H231.368V10.8401L234.253 9.0844V15.2096H239.326V17.0047H234.253V28.008C234.216 30.192 234.253 32.3382 237.454 32.3382C238.43 32.3382 238.857 32.2216 239.209 32.105V34.0545H239.211Z" fill="white"/>
<path fill-rule="evenodd" clip-rule="evenodd" d="M246.544 33.8986L239.17 15.2096H242.409L248.066 29.8015L253.137 15.2096H256.065L246.623 41.2332H244.009L246.544 33.8986Z" fill="white"/>
<path fill-rule="evenodd" clip-rule="evenodd" d="M20.5641 0C9.25051 0 0.0728501 9.13541 0 20.433V20.6982C0.0713931 31.9943 9.25051 41.1283 20.5641 41.1283C31.9215 41.1283 41.1297 31.9229 41.1297 20.5641C41.1283 9.2068 31.9215 0 20.5641 0ZM36.2327 27.8652L36.6728 28.3168C34.5295 30.6918 31.8632 29.5611 28.7569 29.9006C25.8705 30.2124 24.1935 30.2955 21.2795 30.3537C15.1776 30.5228 11.4681 33.4644 5.6692 31.4829C9.3525 26.9327 14.656 30.2678 19.9609 28.091C18.4804 26.588 17.0858 25.0026 15.7837 23.3426C14.5176 21.7603 11.605 20.771 12.7036 19.0459C13.3374 18.0566 14.4345 18.3961 15.5637 18.1411C20.3995 17.0382 23.5903 18.6205 28.3168 17.0105C24.7982 12.4603 23.2596 9.46323 20.621 4.3477C16.1684 12.0072 13.0067 15.8245 8.74785 23.5685C7.84013 25.2367 7.31998 27.2999 5.44919 27.1848C3.90914 27.1017 4.81685 24.5286 5.44919 23.1153C7.15243 19.3271 8.28015 17.2655 10.2864 13.6171C12.4311 9.68907 14.2437 7.76583 17.1023 4.34624C18.147 3.07428 19.6579 1.94365 21.061 2.76394C23.0673 3.9514 23.315 5.76098 24.5796 7.73959C29.5276 15.3714 34.7772 18.2839 37.7728 26.9604C33.1002 27.4135 31.7816 22.3533 29.1969 18.3684L21.721 27.8666H36.2327V27.8652ZM28.5208 17.9241C26.2945 21.3713 24.0391 22.4743 21.7035 25.8385C19.2572 23.1532 17.4971 21.9935 15.1062 19.2805C20.248 20.2698 23.7098 20.1562 28.5208 17.9241Z" fill="white"/>
<path fill-rule="evenodd" clip-rule="evenodd" d="M62.587 38.8568H63.451V37.9302H62.587V38.8568ZM62.6395 45.033H63.4V40.1331H62.6395V45.033ZM65.0785 40.1331H65.8201V41.3366H65.8405C66.1392 40.7189 66.6331 40.021 67.6006 40.021C68.4544 40.021 68.7749 40.7626 68.7749 41.3075V45.0345H68.0129V41.8641C68.0129 41.3381 68.0129 40.6489 67.334 40.6489C66.3038 40.6489 65.8405 41.9879 65.8405 42.9335V45.033H65.0785V40.1331ZM72.7278 40.9258C72.5646 40.834 72.059 40.5353 71.4835 40.5353C71.0406 40.5353 70.6384 40.7189 70.6384 41.121C70.6384 41.7082 71.3495 41.8728 72.2033 42.3871C72.6768 42.664 73.0483 43.0049 73.0483 43.6941C73.0483 44.4546 72.5019 45.1452 71.2154 45.1452C70.5466 45.1452 70.1241 45.0316 69.8866 44.9383V44.1676C69.9901 44.2288 70.618 44.6295 71.2562 44.6295C71.8215 44.6295 72.2848 44.3934 72.2848 43.8368C72.2848 43.3429 71.8113 43.1462 71.2343 42.8067C70.6166 42.4469 69.9056 42.189 69.9056 41.3556C69.9056 40.512 70.4723 40.018 71.584 40.018C72.0998 40.018 72.5311 40.1506 72.7263 40.1929V40.9258H72.7278ZM76.497 45.1059C76.2494 45.1467 76.0949 45.1467 75.8895 45.1467C74.8812 45.1467 74.4179 44.797 74.4281 43.9112V40.6052H73.5641V40.1317H74.4281V38.9792L75.1901 38.5159V40.1317H76.5276V40.6052H75.1901V43.5076C75.1799 44.0845 75.1901 44.6513 76.0352 44.6513C76.1922 44.6591 76.3492 44.6379 76.4985 44.5887V45.1059H76.497ZM77.5679 37.9302H78.4334V38.8568H77.5679V37.9302ZM77.6189 40.1331H78.3809V45.033H77.6189V40.1331ZM82.5101 45.1059C82.2639 45.1467 82.108 45.1467 81.9025 45.1467C80.8928 45.1467 80.431 44.797 80.4412 43.9112V40.6052H79.5757V40.1317H80.4412V38.9792L81.2032 38.5159V40.1317H82.5407V40.6052H81.2032V43.5076C81.193 44.0845 81.2032 44.6513 82.0468 44.6513C82.2038 44.6591 82.3608 44.6379 82.5101 44.5887V45.1059ZM86.5037 43.8398H86.4833C86.0098 44.848 85.6995 45.1467 84.7233 45.1467C83.9103 45.1467 83.5504 44.271 83.5504 43.6329V40.1331H84.311V43.3036C84.311 43.8296 84.5266 44.5187 85.1866 44.5187C86.0827 44.5187 86.4833 43.1812 86.4833 42.2341V40.1346H87.2439V45.0345H86.5037V43.8398ZM91.3847 45.1059C91.1385 45.1467 90.984 45.1467 90.7771 45.1467C89.7689 45.1467 89.3041 44.797 89.3158 43.9112V40.6052H88.4517V40.1317H89.3158V38.9792L90.0778 38.5159V40.1317H91.4153V40.6052H90.0778V43.5076C90.0676 44.0845 90.0778 44.6513 90.9214 44.6513C91.0783 44.6591 91.2354 44.6379 91.3847 44.5887V45.1059ZM95.7397 44.9515C95.3375 45.0651 95.0811 45.1482 94.526 45.1482C93.0632 45.1482 92.1059 44.2434 92.1059 42.441C92.1059 41.0409 92.6625 40.0224 94.0933 40.0224C95.8329 40.0224 95.8329 41.596 95.8329 41.9981H92.9597C92.9597 43.0792 93.3298 44.6542 94.8422 44.6542C95.2865 44.6542 95.4497 44.5814 95.7382 44.51V44.9515H95.7397ZM95.0389 41.5435C95.0389 41.1225 94.9165 40.4318 94.0408 40.4318C93.1651 40.4318 92.9801 41.2769 92.9801 41.5435H95.0389ZM99.4157 42.6363C99.4157 41.07 100.033 40.021 101.495 40.021C102.956 40.021 103.625 41.07 103.625 42.6363C103.625 44.2215 102.956 45.1482 101.495 45.1482C100.033 45.1482 99.4157 44.2215 99.4157 42.6363ZM101.495 44.7358C102.556 44.7358 102.77 43.6737 102.77 42.6654C102.77 41.5945 102.556 40.4318 101.495 40.4318C100.444 40.4318 100.269 41.5945 100.269 42.6654C100.269 43.6751 100.444 44.7358 101.495 44.7358ZM105.336 40.6067H104.429V40.1331H105.336V39.8141C105.336 38.8058 105.49 37.8996 107.055 37.8996C107.457 37.8996 107.703 37.9608 107.888 37.9914V38.5989C107.673 38.5071 107.435 38.392 107.096 38.392C106.179 38.392 106.096 39.0302 106.096 39.5343V40.1317H107.517V40.6052H106.096V45.0316H105.336V40.6067ZM113.438 40.9258C113.273 40.834 112.769 40.5353 112.192 40.5353C111.749 40.5353 111.347 40.7189 111.347 41.121C111.347 41.7082 112.058 41.8728 112.912 42.3871C113.385 42.664 113.756 43.0049 113.756 43.6941C113.756 44.4546 113.211 45.1452 111.923 45.1452C111.254 45.1452 110.831 45.0316 110.595 44.9383V44.1676C110.697 44.2288 111.327 44.6295 111.963 44.6295C112.53 44.6295 112.994 44.3934 112.994 43.8368C112.994 43.3429 112.52 43.1462 111.943 42.8067C111.325 42.4469 110.614 42.189 110.614 41.3556C110.614 40.512 111.181 40.018 112.293 40.018C112.807 40.018 113.24 40.1506 113.435 40.1929V40.9258H113.438ZM114.405 42.6363C114.405 41.07 115.023 40.021 116.484 40.021C117.947 40.021 118.616 41.07 118.616 42.6363C118.616 44.2215 117.947 45.1482 116.484 45.1482C115.023 45.1467 114.405 44.2215 114.405 42.6363ZM116.484 44.7358C117.545 44.7358 117.761 43.6737 117.761 42.6654C117.761 41.5945 117.545 40.4318 116.484 40.4318C115.435 40.4318 115.261 41.5945 115.261 42.6654C115.261 43.6751 115.435 44.7358 116.484 44.7358ZM123.105 44.9719C122.744 45.084 122.436 45.1467 122.004 45.1467C120.171 45.1467 119.554 43.9636 119.554 42.4294C119.554 40.8223 120.347 40.021 121.552 40.021C122.767 40.021 123.241 40.7626 123.241 41.647H122.353C122.353 41.255 122.353 40.4318 121.499 40.4318C120.634 40.4318 120.408 41.4313 120.408 42.2429C120.408 43.2948 120.851 44.6528 122.272 44.6528C122.674 44.6528 122.828 44.5901 123.105 44.5173V44.9719ZM124.29 37.9302H125.155V38.8568H124.29V37.9302ZM124.341 40.1331H125.103V45.033H124.341V40.1331ZM129.15 44.3453H129.13C128.984 44.5814 128.531 45.1482 127.718 45.1482C126.925 45.1482 126.389 44.5712 126.389 43.9126C126.389 42.4702 128.232 42.3988 129.149 42.3478V41.6994C129.149 41.1749 129.086 40.4333 128.273 40.4333C127.491 40.4333 127.44 41.0409 127.408 41.4109H126.523C126.574 40.815 126.873 40.0224 128.305 40.0224C129.745 40.0224 129.912 40.9593 129.912 41.6586V45.0345H129.15V44.3453ZM129.15 42.7587C128.882 42.7805 127.214 42.7587 127.214 43.8106C127.214 44.3337 127.545 44.6324 127.986 44.6324C128.604 44.6324 129.15 44.0554 129.15 43.2948V42.7587ZM131.579 37.9302H132.34V45.033H131.579V37.9302ZM139.075 44.3453H139.052C138.909 44.5814 138.455 45.1482 137.643 45.1482C136.849 45.1482 136.314 44.5712 136.314 43.9126C136.314 42.4702 138.159 42.3988 139.075 42.3478V41.6994C139.075 41.1749 139.013 40.4333 138.198 40.4333C137.416 40.4333 137.365 41.0409 137.333 41.4109H136.448C136.499 40.815 136.798 40.0224 138.23 40.0224C139.67 40.0224 139.836 40.9593 139.836 41.6586V45.0345H139.077V44.3453H139.075ZM139.075 42.7587C138.807 42.7805 137.137 42.7587 137.137 43.8106C137.137 44.3337 137.468 44.6324 137.911 44.6324C138.529 44.6324 139.075 44.0554 139.075 43.2948V42.7587ZM141.475 40.1331H142.215V41.3366H142.236C142.534 40.7189 143.03 40.021 143.997 40.021C144.851 40.021 145.17 40.7626 145.17 41.3075V45.0345H144.411V41.8641C144.411 41.3381 144.411 40.6489 143.73 40.6489C142.7 40.6489 142.237 41.9879 142.237 42.9335V45.033H141.478V40.1331H141.475ZM149.567 44.0875H149.544C149.442 44.4167 149.028 45.1482 148.123 45.1482C146.806 45.1482 146.464 43.9039 146.464 42.5955C146.464 41.1953 146.99 40.021 148.225 40.021C149.142 40.021 149.429 40.7101 149.542 41.0088H149.566V37.9316H150.325V45.0345H149.566V44.0875H149.567ZM148.298 44.6324C149.06 44.6324 149.567 43.7159 149.567 42.4906C149.567 41.9136 149.277 40.5149 148.361 40.5149C147.558 40.5149 147.322 41.6164 147.322 42.6465C147.322 43.6037 147.519 44.6324 148.298 44.6324ZM157.926 44.9515C157.525 45.0651 157.269 45.1482 156.711 45.1482C155.248 45.1482 154.292 44.2434 154.292 42.441C154.292 41.0409 154.847 40.0224 156.278 40.0224C158.019 40.0224 158.019 41.596 158.019 41.9981H155.145C155.145 43.0792 155.515 44.6542 157.028 44.6542C157.473 44.6542 157.638 44.5814 157.925 44.51V44.9515H157.926ZM157.225 41.5435C157.225 41.1225 157.103 40.4318 156.226 40.4318C155.351 40.4318 155.166 41.2769 155.166 41.5435H157.225ZM161.724 45.1059C161.477 45.1467 161.324 45.1467 161.118 45.1467C160.109 45.1467 159.644 44.797 159.655 43.9112V40.6052H158.79V40.1317H159.655V38.9792L160.417 38.5159V40.1317H161.755V40.6052H160.417V43.5076C160.406 44.0845 160.417 44.6513 161.263 44.6513C161.419 44.6593 161.575 44.6381 161.723 44.5887V45.1059H161.724ZM162.806 37.9302H163.568V41.4503H163.588C163.734 41.0598 164.226 40.021 165.247 40.021C165.886 40.021 166.502 40.4216 166.502 41.4095V45.033H165.74V41.749C165.74 41.1822 165.638 40.6475 165.008 40.6475C164.092 40.6475 163.569 41.9646 163.569 42.8621V45.033H162.807V37.9302H162.806ZM168.138 37.9302H169.004V38.8568H168.138V37.9302ZM168.189 40.1331H168.951V45.033H168.189V40.1331ZM173.825 44.9719C173.463 45.084 173.153 45.1467 172.72 45.1467C170.888 45.1467 170.27 43.9636 170.27 42.4294C170.27 40.8223 171.061 40.021 172.267 40.021C173.482 40.021 173.955 40.7626 173.955 41.647H173.07C173.07 41.255 173.07 40.4318 172.216 40.4318C171.351 40.4318 171.126 41.4313 171.126 42.2429C171.126 43.2948 171.568 44.6528 172.99 44.6528C173.388 44.6528 173.545 44.5901 173.823 44.5173V44.9719H173.825ZM177.384 44.3453H177.364C177.218 44.5814 176.767 45.1482 175.952 45.1482C175.161 45.1482 174.623 44.5712 174.623 43.9126C174.623 42.4702 176.468 42.3988 177.384 42.3478V41.6994C177.384 41.1749 177.325 40.4333 176.507 40.4333C175.728 40.4333 175.674 41.0409 175.645 41.4109H174.76C174.811 40.815 175.107 40.0224 176.542 40.0224C177.982 40.0224 178.148 40.9593 178.148 41.6586V45.0345H177.386V44.3453H177.384ZM177.384 42.7587C177.116 42.7805 175.449 42.7587 175.449 43.8106C175.449 44.3337 175.78 44.6324 176.22 44.6324C176.838 44.6324 177.384 44.0554 177.384 43.2948V42.7587ZM179.815 37.9302H180.577V45.033H179.815V37.9302ZM187.309 44.3453H187.289C187.143 44.5814 186.692 45.1482 185.877 45.1482C185.083 45.1482 184.548 44.5712 184.548 43.9126C184.548 42.4702 186.393 42.3988 187.309 42.3478V41.6994C187.309 41.1749 187.247 40.4333 186.432 40.4333C185.65 40.4333 185.599 41.0409 185.57 41.4109H184.682C184.733 40.815 185.032 40.0224 186.464 40.0224C187.907 40.0224 188.073 40.9593 188.073 41.6586V45.0345H187.311V44.3453H187.309ZM187.309 42.7587C187.041 42.7805 185.374 42.7587 185.374 43.8106C185.374 44.3337 185.702 44.6324 186.145 44.6324C186.763 44.6324 187.309 44.0554 187.309 43.2948V42.7587ZM192.898 44.9719C192.54 45.084 192.23 45.1467 191.797 45.1467C189.964 45.1467 189.346 43.9636 189.346 42.4294C189.346 40.8223 190.14 40.021 191.344 40.021C192.559 40.021 193.034 40.7626 193.034 41.647H192.147C192.147 41.255 192.147 40.4318 191.293 40.4318C190.427 40.4318 190.203 41.4313 190.203 42.2429C190.203 43.2948 190.644 44.6528 192.064 44.6528C192.467 44.6528 192.622 44.5901 192.897 44.5173V44.9719H192.898ZM197.287 44.9719C196.926 45.084 196.618 45.1467 196.183 45.1467C194.353 45.1467 193.735 43.9636 193.735 42.4294C193.735 40.8223 194.526 40.021 195.729 40.021C196.945 40.021 197.42 40.7626 197.42 41.647H196.535C196.535 41.255 196.535 40.4318 195.678 40.4318C194.816 40.4318 194.589 41.4313 194.589 42.2429C194.589 43.2948 195.03 44.6528 196.452 44.6528C196.853 44.6528 197.007 44.5901 197.285 44.5173V44.9719H197.287ZM198.129 42.6363C198.129 41.07 198.75 40.021 200.21 40.021C201.673 40.021 202.341 41.07 202.341 42.6363C202.341 44.2215 201.673 45.1482 200.21 45.1482C198.75 45.1467 198.129 44.2215 198.129 42.6363ZM200.21 44.7358C201.272 44.7358 201.487 43.6737 201.487 42.6654C201.487 41.5945 201.272 40.4318 200.21 40.4318C199.159 40.4318 198.986 41.5945 198.986 42.6654C198.986 43.6751 199.159 44.7358 200.21 44.7358ZM206.553 43.8398H206.533C206.061 44.848 205.751 45.1467 204.772 45.1467C203.957 45.1467 203.599 44.271 203.599 43.6329V40.1331H204.358V43.3036C204.358 43.8296 204.573 44.5187 205.235 44.5187C206.131 44.5187 206.533 43.1812 206.533 42.2341V40.1346H207.292V45.0345H206.552V43.8398H206.553ZM208.984 40.1331H209.724V41.3366H209.747C210.043 40.7189 210.538 40.021 211.506 40.021C212.363 40.021 212.682 40.7626 212.682 41.3075V45.0345H211.92V41.8641C211.92 41.3381 211.92 40.6489 211.239 40.6489C210.209 40.6489 209.749 41.9879 209.749 42.9335V45.033H208.987V40.1331H208.984ZM216.774 45.1059C216.53 45.1467 216.377 45.1467 216.168 45.1467C215.161 45.1467 214.697 44.797 214.705 43.9112V40.6052H213.843V40.1317H214.705V38.9792L215.467 38.5159V40.1317H216.808V40.6052H215.467V43.5076C215.456 44.0845 215.467 44.6513 216.312 44.6513C216.469 44.6593 216.625 44.6381 216.773 44.5887V45.1059H216.774ZM220.226 44.3453H220.203C220.06 44.5814 219.605 45.1482 218.794 45.1482C218 45.1482 217.465 44.5712 217.465 43.9126C217.465 42.4702 219.31 42.3988 220.226 42.3478V41.6994C220.226 41.1749 220.163 40.4333 219.349 40.4333C218.566 40.4333 218.515 41.0409 218.483 41.4109H217.599C217.65 40.815 217.949 40.0224 219.381 40.0224C220.82 40.0224 220.987 40.9593 220.987 41.6586V45.0345H220.227V44.3453H220.226ZM220.226 42.7587C219.958 42.7805 218.288 42.7587 218.288 43.8106C218.288 44.3337 218.619 44.6324 219.062 44.6324C219.68 44.6324 220.226 44.0554 220.226 43.2948V42.7587ZM223.251 41.0176H223.274C223.417 40.7189 223.829 40.0195 224.695 40.0195C225.859 40.0195 226.487 41.038 226.487 42.613C226.487 44.3235 225.693 45.1452 224.415 45.1452C222.492 45.1452 222.492 43.4682 222.492 42.6742V37.9287H223.251V41.0176ZM224.406 44.6528C225.362 44.6528 225.63 43.6533 225.63 42.6654C225.63 41.7184 225.403 40.5134 224.498 40.5134C223.561 40.5134 223.252 41.851 223.252 42.747C223.251 43.6329 223.428 44.6528 224.406 44.6528ZM227.773 37.9302H228.639V38.8568H227.773V37.9302ZM227.824 40.1331H228.583V45.033H227.824V40.1331ZM230.294 37.9302H231.057V45.033H230.294V37.9302ZM232.733 38.8568H233.601V37.9302H232.733V38.8568ZM232.787 45.033H233.546V40.1331H232.787V45.033ZM237.677 45.1059C237.429 45.1467 237.276 45.1467 237.07 45.1467C236.061 45.1467 235.596 44.797 235.608 43.9112V40.6052H234.742V40.1317H235.608V38.9792L236.37 38.5159V40.1317H237.707V40.6052H236.37V43.5076C236.358 44.0845 236.37 44.6513 237.212 44.6513C237.369 44.6595 237.526 44.6383 237.675 44.5887V45.1059H237.677ZM239.942 45.0651L237.996 40.1331H238.852L240.343 43.984L241.68 40.1331H242.454L239.961 47H239.273L239.942 45.0651Z" fill="white"/>
<path fill-rule="evenodd" clip-rule="evenodd" d="M62.587 38.8568H63.451V37.9302H62.587V38.8568ZM62.6395 45.033H63.4V40.1331H62.6395V45.033ZM65.0785 40.1331H65.8201V41.3366H65.8405C66.1392 40.7189 66.6331 40.021 67.6006 40.021C68.4544 40.021 68.7749 40.7626 68.7749 41.3075V45.0345H68.0129V41.8641C68.0129 41.3381 68.0129 40.6489 67.334 40.6489C66.3038 40.6489 65.8405 41.9879 65.8405 42.9335V45.033H65.0785V40.1331ZM72.7278 40.9258C72.5646 40.834 72.059 40.5353 71.4835 40.5353C71.0406 40.5353 70.6384 40.7189 70.6384 41.121C70.6384 41.7082 71.3495 41.8728 72.2033 42.3871C72.6768 42.664 73.0483 43.0049 73.0483 43.6941C73.0483 44.4546 72.5019 45.1452 71.2154 45.1452C70.5466 45.1452 70.1241 45.0316 69.8866 44.9383V44.1676C69.9901 44.2288 70.618 44.6295 71.2562 44.6295C71.8215 44.6295 72.2848 44.3934 72.2848 43.8368C72.2848 43.3429 71.8113 43.1462 71.2343 42.8067C70.6166 42.4469 69.9056 42.189 69.9056 41.3556C69.9056 40.512 70.4723 40.018 71.584 40.018C72.0998 40.018 72.5311 40.1506 72.7263 40.1929V40.9258H72.7278ZM76.497 45.1059C76.2494 45.1467 76.0949 45.1467 75.8895 45.1467C74.8812 45.1467 74.4179 44.797 74.4281 43.9112V40.6052H73.5641V40.1317H74.4281V38.9792L75.1901 38.5159V40.1317H76.5276V40.6052H75.1901V43.5076C75.1799 44.0845 75.1901 44.6513 76.0352 44.6513C76.1922 44.6591 76.3492 44.6379 76.4985 44.5887V45.1059H76.497ZM77.5679 37.9302H78.4334V38.8568H77.5679V37.9302ZM77.6189 40.1331H78.3809V45.033H77.6189V40.1331ZM82.5101 45.1059C82.2639 45.1467 82.108 45.1467 81.9025 45.1467C80.8928 45.1467 80.431 44.797 80.4412 43.9112V40.6052H79.5757V40.1317H80.4412V38.9792L81.2032 38.5159V40.1317H82.5407V40.6052H81.2032V43.5076C81.193 44.0845 81.2032 44.6513 82.0468 44.6513C82.2038 44.6591 82.3608 44.6379 82.5101 44.5887V45.1059ZM86.5037 43.8398H86.4833C86.0098 44.848 85.6995 45.1467 84.7233 45.1467C83.9103 45.1467 83.5504 44.271 83.5504 43.6329V40.1331H84.311V43.3036C84.311 43.8296 84.5266 44.5187 85.1866 44.5187C86.0827 44.5187 86.4833 43.1812 86.4833 42.2341V40.1346H87.2439V45.0345H86.5037V43.8398ZM91.3847 45.1059C91.1385 45.1467 90.984 45.1467 90.7771 45.1467C89.7689 45.1467 89.3041 44.797 89.3158 43.9112V40.6052H88.4517V40.1317H89.3158V38.9792L90.0778 38.5159V40.1317H91.4153V40.6052H90.0778V43.5076C90.0676 44.0845 90.0778 44.6513 90.9214 44.6513C91.0783 44.6591 91.2354 44.6379 91.3847 44.5887V45.1059ZM95.7397 44.9515C95.3375 45.0651 95.0811 45.1482 94.526 45.1482C93.0632 45.1482 92.1059 44.2434 92.1059 42.441C92.1059 41.0409 92.6625 40.0224 94.0933 40.0224C95.8329 40.0224 95.8329 41.596 95.8329 41.9981H92.9597C92.9597 43.0792 93.3298 44.6542 94.8422 44.6542C95.2865 44.6542 95.4497 44.5814 95.7382 44.51V44.9515H95.7397ZM95.0389 41.5435C95.0389 41.1225 94.9165 40.4318 94.0408 40.4318C93.1651 40.4318 92.9801 41.2769 92.9801 41.5435H95.0389ZM99.4157 42.6363C99.4157 41.07 100.033 40.021 101.495 40.021C102.956 40.021 103.625 41.07 103.625 42.6363C103.625 44.2215 102.956 45.1482 101.495 45.1482C100.033 45.1482 99.4157 44.2215 99.4157 42.6363ZM101.495 44.7358C102.556 44.7358 102.77 43.6737 102.77 42.6654C102.77 41.5945 102.556 40.4318 101.495 40.4318C100.444 40.4318 100.269 41.5945 100.269 42.6654C100.269 43.6751 100.444 44.7358 101.495 44.7358ZM105.336 40.6067H104.429V40.1331H105.336V39.8141C105.336 38.8058 105.49 37.8996 107.055 37.8996C107.457 37.8996 107.703 37.9608 107.888 37.9914V38.5989C107.673 38.5071 107.435 38.392 107.096 38.392C106.179 38.392 106.096 39.0302 106.096 39.5343V40.1317H107.517V40.6052H106.096V45.0316H105.336V40.6067ZM113.438 40.9258C113.273 40.834 112.769 40.5353 112.192 40.5353C111.749 40.5353 111.347 40.7189 111.347 41.121C111.347 41.7082 112.058 41.8728 112.912 42.3871C113.385 42.664 113.756 43.0049 113.756 43.6941C113.756 44.4546 113.211 45.1452 111.923 45.1452C111.254 45.1452 110.831 45.0316 110.595 44.9383V44.1676C110.697 44.2288 111.327 44.6295 111.963 44.6295C112.53 44.6295 112.994 44.3934 112.994 43.8368C112.994 43.3429 112.52 43.1462 111.943 42.8067C111.325 42.4469 110.614 42.189 110.614 41.3556C110.614 40.512 111.181 40.018 112.293 40.018C112.807 40.018 113.24 40.1506 113.435 40.1929V40.9258H113.438ZM114.405 42.6363C114.405 41.07 115.023 40.021 116.484 40.021C117.947 40.021 118.616 41.07 118.616 42.6363C118.616 44.2215 117.947 45.1482 116.484 45.1482C115.023 45.1467 114.405 44.2215 114.405 42.6363ZM116.484 44.7358C117.545 44.7358 117.761 43.6737 117.761 42.6654C117.761 41.5945 117.545 40.4318 116.484 40.4318C115.435 40.4318 115.261 41.5945 115.261 42.6654C115.261 43.6751 115.435 44.7358 116.484 44.7358ZM123.105 44.9719C122.744 45.084 122.436 45.1467 122.004 45.1467C120.171 45.1467 119.554 43.9636 119.554 42.4294C119.554 40.8223 120.347 40.021 121.552 40.021C122.767 40.021 123.241 40.7626 123.241 41.647H122.353C122.353 41.255 122.353 40.4318 121.499 40.4318C120.634 40.4318 120.408 41.4313 120.408 42.2429C120.408 43.2948 120.851 44.6528 122.272 44.6528C122.674 44.6528 122.828 44.5901 123.105 44.5173V44.9719ZM124.29 37.9302H125.155V38.8568H124.29V37.9302ZM124.341 40.1331H125.103V45.033H124.341V40.1331ZM129.15 44.3453H129.13C128.984 44.5814 128.531 45.1482 127.718 45.1482C126.925 45.1482 126.389 44.5712 126.389 43.9126C126.389 42.4702 128.232 42.3988 129.149 42.3478V41.6994C129.149 41.1749 129.086 40.4333 128.273 40.4333C127.491 40.4333 127.44 41.0409 127.408 41.4109H126.523C126.574 40.815 126.873 40.0224 128.305 40.0224C129.745 40.0224 129.912 40.9593 129.912 41.6586V45.0345H129.15V44.3453ZM129.15 42.7587C128.882 42.7805 127.214 42.7587 127.214 43.8106C127.214 44.3337 127.545 44.6324 127.986 44.6324C128.604 44.6324 129.15 44.0554 129.15 43.2948V42.7587ZM131.579 37.9302H132.34V45.033H131.579V37.9302ZM139.075 44.3453H139.052C138.909 44.5814 138.455 45.1482 137.643 45.1482C136.849 45.1482 136.314 44.5712 136.314 43.9126C136.314 42.4702 138.159 42.3988 139.075 42.3478V41.6994C139.075 41.1749 139.013 40.4333 138.198 40.4333C137.416 40.4333 137.365 41.0409 137.333 41.4109H136.448C136.499 40.815 136.798 40.0224 138.23 40.0224C139.67 40.0224 139.836 40.9593 139.836 41.6586V45.0345H139.077V44.3453H139.075ZM139.075 42.7587C138.807 42.7805 137.137 42.7587 137.137 43.8106C137.137 44.3337 137.468 44.6324 137.911 44.6324C138.529 44.6324 139.075 44.0554 139.075 43.2948V42.7587ZM141.475 40.1331H142.215V41.3366H142.236C142.534 40.7189 143.03 40.021 143.997 40.021C144.851 40.021 145.17 40.7626 145.17 41.3075V45.0345H144.411V41.8641C144.411 41.3381 144.411 40.6489 143.73 40.6489C142.7 40.6489 142.237 41.9879 142.237 42.9335V45.033H141.478V40.1331H141.475ZM149.567 44.0875H149.544C149.442 44.4167 149.028 45.1482 148.123 45.1482C146.806 45.1482 146.464 43.9039 146.464 42.5955C146.464 41.1953 146.99 40.021 148.225 40.021C149.142 40.021 149.429 40.7101 149.542 41.0088H149.566V37.9316H150.325V45.0345H149.566V44.0875H149.567ZM148.298 44.6324C149.06 44.6324 149.567 43.7159 149.567 42.4906C149.567 41.9136 149.277 40.5149 148.361 40.5149C147.558 40.5149 147.322 41.6164 147.322 42.6465C147.322 43.6037 147.519 44.6324 148.298 44.6324ZM157.926 44.9515C157.525 45.0651 157.269 45.1482 156.711 45.1482C155.248 45.1482 154.292 44.2434 154.292 42.441C154.292 41.0409 154.847 40.0224 156.278 40.0224C158.019 40.0224 158.019 41.596 158.019 41.9981H155.145C155.145 43.0792 155.515 44.6542 157.028 44.6542C157.473 44.6542 157.638 44.5814 157.925 44.51V44.9515H157.926ZM157.225 41.5435C157.225 41.1225 157.103 40.4318 156.226 40.4318C155.351 40.4318 155.166 41.2769 155.166 41.5435H157.225ZM161.724 45.1059C161.477 45.1467 161.324 45.1467 161.118 45.1467C160.109 45.1467 159.644 44.797 159.655 43.9112V40.6052H158.79V40.1317H159.655V38.9792L160.417 38.5159V40.1317H161.755V40.6052H160.417V43.5076C160.406 44.0845 160.417 44.6513 161.263 44.6513C161.419 44.6593 161.575 44.6381 161.723 44.5887V45.1059H161.724ZM162.806 37.9302H163.568V41.4503H163.588C163.734 41.0598 164.226 40.021 165.247 40.021C165.886 40.021 166.502 40.4216 166.502 41.4095V45.033H165.74V41.749C165.74 41.1822 165.638 40.6475 165.008 40.6475C164.092 40.6475 163.569 41.9646 163.569 42.8621V45.033H162.807V37.9302H162.806ZM168.138 37.9302H169.004V38.8568H168.138V37.9302ZM168.189 40.1331H168.951V45.033H168.189V40.1331ZM173.825 44.9719C173.463 45.084 173.153 45.1467 172.72 45.1467C170.888 45.1467 170.27 43.9636 170.27 42.4294C170.27 40.8223 171.061 40.021 172.267 40.021C173.482 40.021 173.955 40.7626 173.955 41.647H173.07C173.07 41.255 173.07 40.4318 172.216 40.4318C171.351 40.4318 171.126 41.4313 171.126 42.2429C171.126 43.2948 171.568 44.6528 172.99 44.6528C173.388 44.6528 173.545 44.5901 173.823 44.5173V44.9719H173.825ZM177.384 44.3453H177.364C177.218 44.5814 176.767 45.1482 175.952 45.1482C175.161 45.1482 174.623 44.5712 174.623 43.9126C174.623 42.4702 176.468 42.3988 177.384 42.3478V41.6994C177.384 41.1749 177.325 40.4333 176.507 40.4333C175.728 40.4333 175.674 41.0409 175.645 41.4109H174.76C174.811 40.815 175.107 40.0224 176.542 40.0224C177.982 40.0224 178.148 40.9593 178.148 41.6586V45.0345H177.386V44.3453H177.384ZM177.384 42.7587C177.116 42.7805 175.449 42.7587 175.449 43.8106C175.449 44.3337 175.78 44.6324 176.22 44.6324C176.838 44.6324 177.384 44.0554 177.384 43.2948V42.7587ZM179.815 37.9302H180.577V45.033H179.815V37.9302ZM187.309 44.3453H187.289C187.143 44.5814 186.692 45.1482 185.877 45.1482C185.083 45.1482 184.548 44.5712 184.548 43.9126C184.548 42.4702 186.393 42.3988 187.309 42.3478V41.6994C187.309 41.1749 187.247 40.4333 186.432 40.4333C185.65 40.4333 185.599 41.0409 185.57 41.4109H184.682C184.733 40.815 185.032 40.0224 186.464 40.0224C187.907 40.0224 188.073 40.9593 188.073 41.6586V45.0345H187.311V44.3453H187.309ZM187.309 42.7587C187.041 42.7805 185.374 42.7587 185.374 43.8106C185.374 44.3337 185.702 44.6324 186.145 44.6324C186.763 44.6324 187.309 44.0554 187.309 43.2948V42.7587ZM192.898 44.9719C192.54 45.084 192.23 45.1467 191.797 45.1467C189.964 45.1467 189.346 43.9636 189.346 42.4294C189.346 40.8223 190.14 40.021 191.344 40.021C192.559 40.021 193.034 40.7626 193.034 41.647H192.147C192.147 41.255 192.147 40.4318 191.293 40.4318C190.427 40.4318 190.203 41.4313 190.203 42.2429C190.203 43.2948 190.644 44.6528 192.064 44.6528C192.467 44.6528 192.622 44.5901 192.897 44.5173V44.9719H192.898ZM197.287 44.9719C196.926 45.084 196.618 45.1467 196.183 45.1467C194.353 45.1467 193.735 43.9636 193.735 42.4294C193.735 40.8223 194.526 40.021 195.729 40.021C196.945 40.021 197.42 40.7626 197.42 41.647H196.535C196.535 41.255 196.535 40.4318 195.678 40.4318C194.816 40.4318 194.589 41.4313 194.589 42.2429C194.589 43.2948 195.03 44.6528 196.452 44.6528C196.853 44.6528 197.007 44.5901 197.285 44.5173V44.9719H197.287ZM198.129 42.6363C198.129 41.07 198.75 40.021 200.21 40.021C201.673 40.021 202.341 41.07 202.341 42.6363C202.341 44.2215 201.673 45.1482 200.21 45.1482C198.75 45.1467 198.129 44.2215 198.129 42.6363ZM200.21 44.7358C201.272 44.7358 201.487 43.6737 201.487 42.6654C201.487 41.5945 201.272 40.4318 200.21 40.4318C199.159 40.4318 198.986 41.5945 198.986 42.6654C198.986 43.6751 199.159 44.7358 200.21 44.7358ZM206.553 43.8398H206.533C206.061 44.848 205.751 45.1467 204.772 45.1467C203.957 45.1467 203.599 44.271 203.599 43.6329V40.1331H204.358V43.3036C204.358 43.8296 204.573 44.5187 205.235 44.5187C206.131 44.5187 206.533 43.1812 206.533 42.2341V40.1346H207.292V45.0345H206.552V43.8398H206.553ZM208.984 40.1331H209.724V41.3366H209.747C210.043 40.7189 210.538 40.021 211.506 40.021C212.363 40.021 212.682 40.7626 212.682 41.3075V45.0345H211.92V41.8641C211.92 41.3381 211.92 40.6489 211.239 40.6489C210.209 40.6489 209.749 41.9879 209.749 42.9335V45.033H208.987V40.1331H208.984ZM216.774 45.1059C216.53 45.1467 216.377 45.1467 216.168 45.1467C215.161 45.1467 214.697 44.797 214.705 43.9112V40.6052H213.843V40.1317H214.705V38.9792L215.467 38.5159V40.1317H216.808V40.6052H215.467V43.5076C215.456 44.0845 215.467 44.6513 216.312 44.6513C216.469 44.6593 216.625 44.6381 216.773 44.5887V45.1059H216.774ZM220.226 44.3453H220.203C220.06 44.5814 219.605 45.1482 218.794 45.1482C218 45.1482 217.465 44.5712 217.465 43.9126C217.465 42.4702 219.31 42.3988 220.226 42.3478V41.6994C220.226 41.1749 220.163 40.4333 219.349 40.4333C218.566 40.4333 218.515 41.0409 218.483 41.4109H217.599C217.65 40.815 217.949 40.0224 219.381 40.0224C220.82 40.0224 220.987 40.9593 220.987 41.6586V45.0345H220.227V44.3453H220.226ZM220.226 42.7587C219.958 42.7805 218.288 42.7587 218.288 43.8106C218.288 44.3337 218.619 44.6324 219.062 44.6324C219.68 44.6324 220.226 44.0554 220.226 43.2948V42.7587ZM223.251 41.0176H223.274C223.417 40.7189 223.829 40.0195 224.695 40.0195C225.859 40.0195 226.487 41.038 226.487 42.613C226.487 44.3235 225.693 45.1452 224.415 45.1452C222.492 45.1452 222.492 43.4682 222.492 42.6742V37.9287H223.251V41.0176ZM224.406 44.6528C225.362 44.6528 225.63 43.6533 225.63 42.6654C225.63 41.7184 225.403 40.5134 224.498 40.5134C223.561 40.5134 223.252 41.851 223.252 42.747C223.251 43.6329 223.428 44.6528 224.406 44.6528ZM227.773 37.9302H228.639V38.8568H227.773V37.9302ZM227.824 40.1331H228.583V45.033H227.824V40.1331ZM230.294 37.9302H231.057V45.033H230.294V37.9302ZM232.733 38.8568H233.601V37.9302H232.733V38.8568ZM232.787 45.033H233.546V40.1331H232.787V45.033ZM237.677 45.1059C237.429 45.1467 237.276 45.1467 237.07 45.1467C236.061 45.1467 235.596 44.797 235.608 43.9112V40.6052H234.742V40.1317H235.608V38.9792L236.37 38.5159V40.1317H237.707V40.6052H236.37V43.5076C236.358 44.0845 236.37 44.6513 237.212 44.6513C237.369 44.6595 237.526 44.6383 237.675 44.5887V45.1059H237.677ZM239.942 45.0651L237.996 40.1331H238.852L240.343 43.984L241.68 40.1331H242.454L239.961 47H239.273L239.942 45.0651Z" fill="white"/>
</svg>
