<svg width="154" height="102" viewBox="0 0 154 102" fill="none" xmlns="http://www.w3.org/2000/svg">
<path d="M11.0156 101.992C10.9502 101.984 10.7283 101.961 10.5226 101.941C8.64466 101.752 6.64001 100.984 5.06419 99.8489C2.70155 98.1473 1.03664 95.6696 0.342183 92.8217C-0.0268579 91.3084 -0.100204 89.613 0.135815 88.0532C0.768655 83.8714 3.53107 80.2894 7.3631 78.6815C8.31945 78.2803 9.26855 78.0266 10.3866 77.8733C11.0063 77.7884 12.5156 77.7879 13.1408 77.8725C14.4667 78.052 15.5906 78.3865 16.7452 78.9454C18.0157 79.5603 18.895 80.1935 19.9593 81.2599C20.8897 82.1923 21.4642 82.9683 22.1303 84.1924L22.272 84.4528L21.7698 84.8244C21.0781 85.3363 19.4554 86.4945 18.9269 86.8536L18.4903 87.1502L18.3107 86.7598C18.0887 86.277 17.9306 85.9909 17.6746 85.6085C16.6518 84.0804 15.0207 82.989 13.2429 82.6429C12.3021 82.4598 11.144 82.4802 10.2165 82.6962C9.24268 82.923 8.18513 83.4318 7.37724 84.0623C7.05159 84.3164 6.45224 84.911 6.18855 85.2416C4.76567 87.0252 4.24157 89.2976 4.72956 91.5672C4.89852 92.353 5.33584 93.3797 5.79207 94.0615C6.99953 95.8662 8.85034 97.0224 10.9467 97.2817C11.3173 97.3275 12.2101 97.3275 12.5807 97.2817C14.4372 97.0521 16.1527 96.0871 17.3249 94.613C17.6701 94.1789 17.9107 93.8031 18.185 93.2694C18.3053 93.0355 18.4137 92.8442 18.4259 92.8442C18.4382 92.8442 19.293 93.4476 20.3254 94.1852L22.2025 95.5261L22.0123 95.886C21.6176 96.6328 20.9385 97.5716 20.306 98.2449C19.2284 99.3919 18.1788 100.171 16.8132 100.839C15.6337 101.415 14.3839 101.783 13.0558 101.944C12.758 101.98 11.2273 102.016 11.0156 101.992ZM27.0653 89.7828V78.0302H31.6218V86.4662H43.523V78.0302H48.0795V101.535H43.523V91.1945H31.6218V101.535H27.0653V89.7828ZM52.6829 99.4519C53.1908 98.3059 55.534 93.0173 57.8901 87.6993L62.1739 78.0302L65.3702 78.0306L68.5666 78.031L73.7449 89.6386C76.593 96.0228 78.9525 101.311 78.9883 101.391L79.0533 101.535H73.5974L72.5441 99.2054L71.4908 96.8755L65.394 96.8838L59.297 96.8922L58.2555 99.2138L57.214 101.535H51.7594L52.6829 99.4519ZM69.5637 92.1335C69.5445 92.0506 65.405 82.7943 65.3873 82.7946C65.3746 82.7948 61.4433 91.9732 61.3805 92.1492C61.3735 92.1687 62.9456 92.1809 65.4719 92.1809C68.9618 92.1809 69.573 92.1739 69.5637 92.1335ZM82.7291 89.7828V78.0302L85.9339 78.0309L89.1388 78.0316L94.1543 85.0786L99.1698 92.1256L99.1784 85.0779L99.1869 78.0302H103.777V101.536L101.935 101.527L100.094 101.518L93.7321 92.684C90.2332 87.825 87.3591 83.849 87.3451 83.8483C87.331 83.8476 87.3196 87.8269 87.3196 92.6912V101.535H82.7291V89.7828ZM112.074 89.7828V78.0302H128.498V82.7585H116.665V87.4527H127.614V92.1809H116.665V96.8752H130.198V101.535H112.074V89.7828ZM136.625 89.7828V78.0302H141.215V96.8752H154.001V101.535H136.625V89.7828ZM57.9587 72.0522C53.0541 71.8253 47.5926 70.3355 43.1896 68.0237C39.8094 66.2489 37.1304 64.2628 34.3239 61.451C32.1258 59.2487 30.5041 57.22 29.1313 54.9554L28.5304 53.964L29.3829 53.5117C31.0441 52.6303 38.617 48.7511 38.6765 48.7511C38.7097 48.7511 39.0225 49.1771 39.3717 49.6977C43.3182 55.5821 49.4923 59.41 56.7173 60.4518C57.9804 60.6339 61.7785 60.6049 63.1539 60.4026C64.6844 60.1775 66.5201 59.76 67.6861 59.3718C67.7619 59.3466 67.617 59.111 67.2834 58.7177C64.7009 55.6723 62.3466 51.4925 61.0221 47.6013C58.6264 40.5624 58.4558 33.0068 60.5325 25.9076C61.8221 21.4992 64.0415 17.2202 66.8521 13.7234C67.2709 13.2025 67.6135 12.7428 67.6135 12.702C67.6135 12.5633 65.4195 11.979 63.9815 11.7349C61.7598 11.3577 58.2818 11.3109 56.2739 11.6312C52.8954 12.1702 49.4662 13.436 46.7866 15.1331C43.8005 17.0244 41.3104 19.4549 39.3234 22.4178L38.4459 23.726L37.3291 23.1395C36.7149 22.8169 34.433 21.6339 32.2584 20.5108C30.0838 19.3876 28.2978 18.4626 28.2895 18.4553C28.2549 18.4248 29.6163 16.2586 30.1767 15.4526C31.8782 13.0052 34.8996 9.76404 37.1318 7.99145C42.9687 3.35641 49.4577 0.746013 56.7633 0.0940935C58.1185 -0.0268679 61.4788 -0.0279224 62.7861 0.0921546C67.4242 0.518105 71.3999 1.64312 75.5074 3.69168L77.4703 4.67073L78.128 4.29638C79.1899 3.69188 81.0767 2.81967 82.5096 2.27079C86.53 0.730842 90.579 -0.0021722 95.0527 4.83471e-06C98.1767 0.00153556 100.783 0.308599 103.612 1.00848C110.004 2.58962 115.455 5.62203 120.151 10.2094C122.697 12.6964 124.693 15.2357 126.304 18.0391L126.548 18.464L122.574 20.5147C120.389 21.6426 118.102 22.8268 117.493 23.1461L116.387 23.7267L115.55 22.4642C111.422 16.2345 104.669 12.1789 97.278 11.4899C95.0899 11.286 91.8408 11.4738 89.8657 11.9184C88.8493 12.1472 87.1991 12.6189 87.1996 12.6804C87.1998 12.7126 87.4698 13.0701 87.7995 13.4749C92.0351 18.6739 94.6798 25.0113 95.5343 32.0098C95.7382 33.6802 95.7654 37.945 95.5827 39.5986C94.8108 46.582 92.1713 53.0266 87.958 58.2147C87.0028 59.3909 87.0436 59.3095 87.35 59.4279C87.4946 59.4838 88.1716 59.6711 88.8543 59.8442C92.3242 60.7237 96.0595 60.848 99.5666 60.2005C105.945 59.023 111.69 55.2491 115.385 49.809C115.729 49.303 116.039 48.8552 116.075 48.8137C116.111 48.7722 116.962 49.1508 117.968 49.6549C119.959 50.6536 126.198 53.8831 126.265 53.95C126.376 54.0615 124.388 57.0139 123.169 58.5475C122.014 59.9994 118.989 63.0228 117.543 64.1689C112.319 68.3105 106.456 70.8428 99.9984 71.7469C92.5838 72.785 84.7315 71.3947 78.3425 67.9127L77.4395 67.4206L76.3196 68.0134C70.7705 70.9504 64.4055 72.3505 57.9587 72.0522ZM78.6736 51.6487C81.7659 47.8195 83.6953 43.1745 84.1708 38.4146C84.3304 36.8171 84.2356 33.5628 83.9871 32.1082C83.3031 28.1053 81.8397 24.6744 79.479 21.5391C79.0344 20.9488 78.3871 20.1595 78.0404 19.7853L77.4101 19.1049L76.8252 19.7393C76.0543 20.5755 74.7696 22.2816 74.1221 23.329C70.8343 28.6474 69.7608 35.1813 71.1531 41.4C72.0293 45.3134 74.0437 49.2556 76.7585 52.3695L77.3836 53.0865L77.6572 52.8275C77.8077 52.6851 78.265 52.1546 78.6736 51.6487Z" fill="white"/>
</svg>
