<svg width="108" height="105" viewBox="0 0 108 105" fill="none" xmlns="http://www.w3.org/2000/svg">
<path fill-rule="evenodd" clip-rule="evenodd" d="M0 0H18.7874C27.0307 0 30.8645 -3.33961e-07 41.9828 3.06691C53.1978 6.13452 52.6228 8.05212 52.6228 8.05212C52.6228 8.05212 59.7154 4.50546 64.029 3.35546C68.3418 2.30071 74.3797 0 86.1697 0H105.054V25.784H86.1697V17.1569C86.1697 17.1569 78.7899 16.3907 72.3676 18.0198C65.8506 19.6488 66.9999 20.1279 66.9999 20.1279C66.9999 20.1279 75.819 29.905 75.9149 44.1876C76.1061 58.5647 67.4804 67.0959 67.4804 67.0959C67.4804 67.0959 71.2176 69.3966 77.3528 69.5885C83.3906 69.6844 86.1704 69.5885 86.1704 69.5885V58.5647H105.054V87.8968H86.1704C80.7068 87.8968 69.1101 86.938 63.6466 84.8285C58.183 82.7204 52.6235 79.4609 52.6235 79.4609C52.6235 79.4609 47.064 82.7204 39.1078 85.3089C31.1523 87.8968 18.7874 87.8968 18.7874 87.8968H0V58.5647H18.7874V70.452C18.7874 70.452 22.2374 71.0264 27.4138 70.5466C32.5895 70.0676 38.0524 68.0554 38.0524 68.0554C38.0524 68.0554 28.8509 59.3323 29.0428 43.6126C29.1388 27.7969 37.1902 20.8002 37.1902 20.8002C37.1902 20.8002 34.9861 18.7874 28.8516 18.0205C22.8131 17.2535 18.7874 17.7326 18.7874 17.7326V48.118L0 47.9261V0ZM52.6235 31.0557C51.8559 31.8226 48.5011 36.5193 48.4059 43.1335C48.3099 49.6518 52.6235 56.3614 52.6235 56.3614C52.6235 56.3614 56.5526 51.0897 56.7438 44.0916C56.8411 37.1909 52.8154 31.4388 52.6235 31.0557Z" fill="white"/>
<path fill-rule="evenodd" clip-rule="evenodd" d="M95.8523 30.4807L98.2489 37.5747L105.246 34.9855L101.125 41.2167L107.546 45.1457L100.07 45.8174L101.125 53.1985L95.8523 47.8295L90.6766 53.1985L91.7313 45.8174L84.2542 45.1457L90.6766 41.2167L86.5549 34.9855L93.5516 37.5747L95.8523 30.4807ZM68.4385 99.974C68.4385 101.125 68.7256 101.986 69.3973 102.658C69.9716 103.328 70.7392 103.711 71.698 103.711C72.6554 103.711 73.423 103.328 74.0947 102.658C74.669 101.986 74.9561 101.027 74.9561 99.7814C74.9561 99.0152 74.8602 98.3449 74.573 97.7692C74.3804 97.1935 73.9973 96.7145 73.4223 96.4273C72.9021 96.1126 72.3053 95.9469 71.6973 95.9483C70.8345 95.9483 70.0683 96.2354 69.3966 96.9071C68.7256 97.4814 68.4385 98.5361 68.4385 99.974ZM67.098 99.974C67.098 98.3449 67.577 97.099 68.4385 96.2354C69.3014 95.2766 70.3547 94.8935 71.698 94.8935C72.6554 94.8935 73.423 95.0847 74.0947 95.4692C74.8609 95.9483 75.3392 96.5226 75.7237 97.2902C76.1068 98.0564 76.298 98.9192 76.298 99.878C76.298 100.835 76.1068 101.699 75.7237 102.466C75.364 103.19 74.7969 103.79 74.0947 104.191C73.3271 104.574 72.5602 104.765 71.698 104.765C70.8352 104.765 69.9716 104.574 69.3013 104.095C68.5991 103.694 68.032 103.094 67.6723 102.37C67.3015 101.625 67.1051 100.806 67.098 99.974ZM64.6999 101.22L65.9459 101.603C65.6587 102.658 65.1797 103.425 64.508 104C63.8378 104.479 62.9749 104.766 62.0154 104.766C60.9621 104.766 60.0992 104.575 59.429 104.192C58.8533 103.711 58.2783 103.137 57.9897 102.274C57.6066 101.508 57.5107 100.645 57.5107 99.7814C57.5107 98.728 57.7019 97.8652 58.0864 97.099C58.4695 96.4273 58.9478 95.853 59.7154 95.4699C60.3871 95.0854 61.1533 94.8942 62.0147 94.8942C62.9735 94.8942 63.7411 95.0854 64.4128 95.5645C65.083 96.0449 65.5621 96.8104 65.7533 97.674L64.5073 97.9611C64.3161 97.2909 64.0283 96.7152 63.5499 96.428C63.1668 96.1409 62.5911 95.949 62.0154 95.949C61.2492 95.949 60.6735 96.1402 60.0992 96.428C59.6202 96.8111 59.333 97.2909 59.0445 97.8659C58.8533 98.5375 58.7573 99.1118 58.7573 99.7821C58.7573 100.55 58.9485 101.221 59.1418 101.892C59.429 102.467 59.7161 102.946 60.2911 103.234C60.7716 103.521 61.3459 103.713 61.9202 103.713C62.5918 103.713 63.1675 103.521 63.6466 103.042C64.2209 102.658 64.508 102.082 64.6999 101.22ZM48.8849 104.574V94.9895H55.9776V96.6185H50.8012V98.728H55.5945V100.357H50.8012V103.041H56.1688V104.574H48.8849ZM40.0659 99.7814C40.0659 100.933 40.2578 101.699 40.7369 102.274C41.3119 102.85 41.8876 103.137 42.6538 103.137C43.4207 103.137 44.0916 102.85 44.5707 102.274C45.0504 101.7 45.3376 100.933 45.3376 99.7814C45.3376 98.728 45.0504 97.8652 44.5707 97.2902C44.0909 96.8097 43.5166 96.5226 42.6538 96.5226C41.8876 96.5226 41.2159 96.8097 40.7369 97.2902C40.2585 97.8645 40.0659 98.728 40.0659 99.7814ZM38.0531 99.878C38.0531 98.9192 38.1497 98.0557 38.4369 97.3854C38.7018 96.9308 39.0241 96.512 39.3957 96.1395C39.7788 95.755 40.1619 95.4692 40.6416 95.2766C41.2159 94.9895 41.8876 94.8935 42.6538 94.8935C44.0916 94.8935 45.2423 95.2766 46.1052 96.1395C46.8714 97.0009 47.3511 98.2476 47.3511 99.878C47.3511 101.411 46.8714 102.562 46.1052 103.425C45.243 104.382 44.0916 104.765 42.6538 104.765C41.3119 104.765 40.1619 104.382 39.299 103.519C38.4369 102.562 38.0531 101.412 38.0531 99.878ZM28.7557 104.574V94.9895H30.6726V98.824H34.5064V94.9895H36.424V104.575H34.5064V100.453H30.6726V104.575H28.7557V104.574ZM19.3624 101.507L21.184 101.316C21.28 101.986 21.5671 102.371 21.855 102.658C22.2381 103.041 22.7171 103.137 23.2928 103.137C23.9638 103.137 24.3469 103.041 24.7307 102.754C25.0185 102.467 25.2104 102.178 25.2104 101.795C25.2104 101.604 25.1152 101.412 25.0192 101.221C24.828 101.125 24.6361 100.933 24.2523 100.836C24.0611 100.74 23.5814 100.645 22.7185 100.453C21.6645 100.166 20.9935 99.8787 20.5145 99.4956C19.9395 98.9199 19.6523 98.2483 19.6523 97.578C19.6523 97.0023 19.8442 96.6192 20.0361 96.1402C20.362 95.7186 20.7911 95.3884 21.2821 95.1814C21.7611 94.9902 22.4321 94.8942 23.199 94.8942C24.349 94.8942 25.3078 95.0854 25.8828 95.6618C26.4578 96.1409 26.8409 96.9078 26.8409 97.7699L24.924 97.8659C24.8287 97.3868 24.6368 97.003 24.349 96.8111C24.0618 96.524 23.678 96.428 23.103 96.428C22.6233 96.428 22.1449 96.6192 21.8571 96.8111C21.6659 97.0023 21.474 97.1942 21.474 97.3868C21.474 97.674 21.5699 97.8659 21.7618 97.9611C22.049 98.1523 22.624 98.4416 23.5835 98.6328C24.5416 98.824 25.2125 99.1118 25.6923 99.303C26.107 99.5454 26.4664 99.872 26.747 100.262C27.0342 100.741 27.1301 101.221 27.1301 101.795C27.1301 102.371 26.9389 102.85 26.6504 103.328C26.3632 103.809 25.8842 104.191 25.4044 104.479C24.8301 104.67 24.1585 104.766 23.2956 104.766C22.0497 104.766 21.0916 104.479 20.5159 103.904C19.8421 103.425 19.4583 102.562 19.3624 101.507ZM0.766907 94.7976H4.79262C5.17642 94.7976 5.46357 94.8935 5.75142 94.8935L6.23047 94.9895C6.42237 94.9895 6.61427 95.0854 6.80617 95.1807L6.99737 95.2766L7.18928 95.3726L7.57168 95.6611L7.76358 95.8523L8.05143 96.1395L8.33858 96.5226L8.62643 96.9071L8.81763 97.3861L9.00953 97.8652L9.10548 98.3456L9.20143 98.9199V100.74L9.10548 101.316L9.00953 101.795L8.81763 102.274L8.62643 102.754L8.43523 102.946L8.33928 103.233L8.14738 103.425L7.95618 103.617L7.66903 103.904L7.38118 104.095L6.99807 104.382L6.61497 104.478L6.23117 104.669C6.03927 104.669 5.75212 104.765 5.56022 104.765H0.766907V94.7976ZM3.35546 97.0983V102.562C3.93047 102.562 4.50617 102.562 5.17712 102.466H5.36832C5.56022 102.37 5.65617 102.37 5.84807 102.273L6.13592 101.986C6.42307 101.507 6.51832 100.933 6.51832 100.357C6.61497 99.6868 6.61497 99.0152 6.42307 98.4409L6.32712 98.1523C6.23117 97.9611 6.13592 97.7692 6.03927 97.578C5.94402 97.4821 5.84807 97.4821 5.75212 97.3868C5.65617 97.2909 5.46427 97.2909 5.36832 97.1942H5.08117C4.50547 97.0983 3.93047 97.0983 3.35546 97.0983ZM16.1035 100.548L18.5962 101.411L18.4043 102.081L18.2124 102.466L18.1171 102.849L17.9252 103.136L17.7333 103.425L17.5421 103.71L17.2543 103.903L16.9664 104.19L16.6793 104.381L16.3914 104.477L16.1035 104.669L15.8164 104.765L15.4333 104.862L15.0495 104.958H13.8035L13.4197 104.862L12.9407 104.765L12.4616 104.573L12.0778 104.382L11.694 104.191L11.4069 103.904L11.0231 103.617L10.7352 103.232L10.4481 102.849L10.2562 102.466L10.0643 101.985L9.87308 101.506L9.77713 101.026V98.7273L9.87308 98.2469L10.0643 97.7678L10.2562 97.2888L10.4481 96.8083L10.7352 96.4252L11.0231 96.0421L11.4069 95.7536L11.694 95.4678L12.0778 95.1793L12.5569 94.9881L12.94 94.8921L13.419 94.7962L13.8988 94.7002H15.3359L15.719 94.7962L16.1028 94.9874L16.4867 95.0833L16.7738 95.2745L17.1576 95.5617L17.4448 95.7529L17.6367 95.9455L17.7326 96.1367L17.9245 96.3279L18.0198 96.615L18.211 96.8062L18.3069 97.0948L18.4029 97.3819L18.5948 97.9562L16.0069 98.6279L15.9102 98.1474L15.815 97.8603L15.6231 97.5731L15.4319 97.3819L15.24 97.286L15.0481 97.0948L14.7609 96.9974H13.8981L13.7062 97.0948L13.515 97.1893H13.4183L13.2271 97.3819L13.1312 97.4779L12.9393 97.5738L12.844 97.765L12.7474 97.9562L12.6521 98.1474L12.5562 98.436L12.4609 98.7231V99.0103L12.3643 99.3934V100.161L12.4609 100.544V100.831L12.5562 101.216L12.6521 101.407L12.7474 101.694L12.844 101.885L12.9393 101.981L13.0352 102.172L13.2264 102.268L13.4176 102.366L13.5143 102.462L13.7055 102.558H13.8974L14.0886 102.654H14.5683L14.8555 102.558L15.1426 102.462L15.3345 102.269L15.4312 102.173L15.6224 101.886L15.8143 101.599L15.9095 101.216L16.1035 100.548ZM100.166 100.453L99.3982 98.4409L98.728 100.453H100.166ZM104.67 104.766H101.89L101.029 102.658H97.8644L97.0982 104.766H94.3185L98.2482 94.7983H100.643L104.67 104.766ZM86.2677 101.125L86.459 101.891V102.274L86.6502 102.659L86.7461 102.946L86.9373 103.233L87.1285 103.52L87.3211 103.809L87.6068 104.096L87.8954 104.287L88.1826 104.478L88.4697 104.574L88.8528 104.765L89.2373 104.863H89.6204L90.0995 104.959H90.8671L91.4414 104.863H91.9218L92.209 104.765L92.4961 104.669L92.6873 104.573L92.8785 104.477L93.0697 104.381L93.2623 104.285L93.4535 104.094L93.6447 103.998L93.8359 103.807L93.9319 103.616L94.1231 103.425L94.2204 103.232L94.3164 103.041L94.4109 102.85L94.5083 102.659V102.179L94.6042 101.988V101.317L94.5083 100.837L94.4109 100.646L94.3164 100.454L94.2204 100.263L94.1231 100.072L93.9319 99.7835L93.6447 99.4977L93.3576 99.2092L92.9745 99.018L92.59 98.8268C92.1109 98.6356 91.7285 98.5396 91.2481 98.4437L90.5778 98.2511C90.2893 98.1551 90.0974 98.0599 89.8102 98.0599C89.619 97.9639 89.4271 97.8687 89.2359 97.6768C89.14 97.5808 89.14 97.4856 89.2359 97.2937C89.3319 97.1963 89.619 97.1025 89.8102 97.0051H90.0974C90.1933 96.9106 90.3859 96.9106 90.5778 96.9106C90.6738 97.0051 90.865 97.0051 90.9609 97.0051C91.0569 97.0051 91.1521 97.1025 91.2481 97.1025C91.344 97.197 91.4393 97.197 91.4393 97.2937C91.5366 97.3896 91.6305 97.4849 91.6305 97.5808C91.7278 97.772 91.7278 98.0599 91.8231 98.3484L94.3157 98.1558V97.4856L94.2197 97.197L94.1224 96.8139L94.0278 96.5268L93.9305 96.2396L93.7393 96.0484L93.5481 95.7599L93.2609 95.5687L92.9738 95.2815L92.6852 95.1856L92.3981 94.9944L92.015 94.8984L91.6305 94.8025L91.2474 94.7065H89.909L89.3347 94.8025L88.8542 94.8984L88.4711 94.9944L88.088 95.1856L87.8968 95.3768L87.7056 95.4741L87.5144 95.6653L87.4171 95.7599L87.2259 95.9525L87.1299 96.1437L87.034 96.2396L86.8428 96.6227L86.7468 97.0058L86.6509 97.3903V97.5815L86.7468 97.9646V98.2518L86.8428 98.5403L86.9387 98.8275L87.0347 99.0187L87.2259 99.3058L87.4171 99.4984L87.7056 99.7842L87.8968 99.8815L88.088 100.073L88.2792 100.169L88.5664 100.265L88.8535 100.456L89.238 100.552C89.8123 100.743 90.484 100.936 91.1542 101.031L91.3454 101.128C91.538 101.224 91.8259 101.319 91.9211 101.511C92.0164 101.703 92.0171 101.894 91.9211 102.086L91.8252 102.182L91.538 102.47L91.3454 102.566L91.0583 102.662H90.388L90.0035 102.566H89.7164L89.5252 102.375L89.334 102.277L89.1428 101.99L89.0454 101.703L88.9509 101.416L88.8535 100.84L86.2677 101.125ZM77.5447 94.7976H80.1325V101.603C80.1325 101.699 80.2285 101.89 80.2285 101.986C80.3244 102.082 80.3244 102.177 80.4197 102.177L80.7068 102.466L80.898 102.562H81.0906L81.4737 102.658H81.9528C82.0501 102.562 82.144 102.562 82.3373 102.562L82.5285 102.466C82.6244 102.37 82.7197 102.273 82.7197 102.177L82.9109 101.986C82.9109 101.699 83.0068 101.507 83.0068 101.22V94.7976H85.5947V100.452C85.5947 100.933 85.5947 101.315 85.4987 101.794C85.4987 101.985 85.4987 102.273 85.4028 102.466L85.3068 102.849L85.2109 103.232L85.0197 103.519L84.8271 103.808L84.5399 104.095L84.2528 104.286L83.9656 104.477L83.5811 104.669L83.3899 104.765L82.9109 104.862L82.4304 104.958H81.2811C80.994 104.958 80.7054 104.958 80.4183 104.862H80.1311L79.9399 104.765L79.7487 104.669L79.2683 104.573L78.9811 104.285L78.694 104.094L78.4054 103.903C78.3109 103.71 78.2142 103.616 78.1183 103.424C78.0223 103.327 77.9271 103.135 77.8311 103.039L77.7352 102.656C77.6392 102.465 77.6392 102.272 77.6392 102.081C77.5433 101.794 77.5433 101.506 77.5433 101.219V94.7976H77.5447Z" fill="white"/>
</svg>
