<svg width="195" height="94" viewBox="0 0 195 94" fill="none" xmlns="http://www.w3.org/2000/svg">
<path fill-rule="evenodd" clip-rule="evenodd" d="M0 2.70083H20.6385C25.5805 2.70083 30.4312 3.06709 35.2363 3.84528C39.9956 4.57781 44.4801 6.68202 48.6895 10.0687C52.6251 13.4097 55.6911 17.6648 57.8877 22.8361C60.1299 28.0064 61.3657 33.3147 61.5483 38.8066C61.6396 39.1729 61.6852 39.5848 61.6852 39.9967V42.0096C61.5483 47.7308 60.3582 53.2207 58.116 58.5746C55.9194 63.8839 52.6697 68.2314 48.3679 71.6616C44.5703 74.4537 40.5424 76.2394 36.196 77.0622C31.8942 77.9317 27.4554 78.3893 22.971 78.5719H0V2.70083ZM15.102 64.8893C15.6052 64.8893 16.1541 64.8893 16.7486 64.936C17.3432 64.9827 17.9844 64.9827 18.6246 64.9827H19.8603C20.2969 65.0731 20.7416 65.1186 21.1874 65.1186H22.4232C23.1557 65.1186 23.8872 65.074 24.6197 65.0273C25.3523 65.0273 26.0838 64.936 26.8619 64.8893C29.0756 64.6977 31.2664 64.2996 33.406 63.7003C35.5112 63.0601 37.3872 62.0993 38.9425 60.8189C41.3684 58.7603 43.1987 55.9672 44.4334 52.4902C45.6681 49.0133 46.3093 45.3973 46.356 41.6444V41.3705V40.9129V40.501V40.089C46.3128 36.427 45.6794 32.7959 44.4801 29.3355C43.29 25.8576 41.5053 23.0208 39.1718 20.8243C37.5154 19.2434 35.4841 18.1098 33.269 17.5299C31.0724 16.9354 28.7846 16.6148 26.4054 16.5235C25.9022 16.4322 25.3523 16.3865 24.849 16.3865H15.102V64.8893ZM104.198 77.3382L99.5756 71.8909C97.5674 73.753 95.2637 75.2684 92.7587 76.3753C90.2782 77.5315 87.6142 78.2441 84.8876 78.4806C84.6161 78.534 84.3405 78.5646 84.0638 78.5719H83.241C82.6454 78.5719 82.0965 78.5273 81.502 78.4806C80.9075 78.4339 80.3576 78.3426 79.763 78.298C78.5968 78.0628 77.4495 77.7417 76.3307 77.3372C75.1977 76.9301 74.1092 76.4087 73.082 75.7808C71.2061 74.5004 69.7421 72.8061 68.5976 70.7465C67.4532 68.6412 66.7663 66.4903 66.538 64.2937C66.4924 64.0178 66.4924 63.7449 66.4924 63.5156V62.8287V62.2352C66.538 62.0059 66.538 61.7776 66.538 61.5483C66.538 61.457 66.5837 61.4103 66.5837 61.3657C66.6293 61.2744 66.6293 61.2277 66.6293 61.0897C66.6293 60.9984 66.675 60.8604 66.675 60.6788C66.7206 60.5408 66.7206 60.4049 66.7206 60.3115C67.3152 57.0628 68.6879 54.3641 70.8855 52.2132C73.082 50.0612 75.5079 48.1843 78.1153 46.492C76.5182 44.8013 75.1491 42.9089 74.0428 40.8631C72.9451 38.8958 72.3962 36.7906 72.3962 34.6853C72.3962 34.2734 72.3962 33.8615 72.4875 33.4039C72.5331 32.992 72.5788 32.5344 72.6245 32.1692C72.7158 31.8486 72.7614 31.5736 72.8538 31.2997C72.9451 30.9791 73.0364 30.7052 73.082 30.4302C73.9972 27.5468 75.7818 25.4882 78.3913 24.1611C80.9998 22.8341 83.7453 22.1472 86.719 22.1472C90.4252 22.1472 93.8119 23.1547 96.8779 25.1676C99.944 27.1348 101.5 30.1096 101.5 33.9538V34.9146C101.271 37.3395 100.355 39.4447 98.8006 41.1837C97.2585 42.8942 95.5744 44.4711 93.7662 45.8974C93.3543 46.1257 92.9424 46.355 92.5761 46.6746C92.2098 46.9506 91.8436 47.2235 91.4783 47.4528L100.769 58.2986C101.271 57.841 101.73 57.3824 102.187 56.9248C102.645 56.4693 103.057 56.0107 103.468 55.5065C104.428 54.5924 105.345 53.6316 106.258 52.6697C107.174 51.6643 108.043 50.7025 108.866 49.697L115.045 56.2411C114.358 56.9726 113.627 57.7041 112.94 58.4376C112.242 59.174 111.556 59.9211 110.881 60.6788C110.103 61.4103 109.371 62.1439 108.685 62.8754L106.626 65.0719L116.785 77.3362H104.198V77.3382ZM77.8393 65.9435C78.4349 66.7217 79.0294 67.3619 79.5783 67.8651C80.1729 68.414 80.7674 68.7813 81.4086 69.1009C82.0042 69.4215 82.5531 69.6964 83.1476 69.8324C83.7421 69.9704 84.2921 70.0617 84.8866 70.0617C86.069 70.058 87.2378 69.8089 88.3189 69.3302C89.3469 68.8429 90.3272 68.2607 91.247 67.5912C92.0252 67.0423 92.9403 66.2641 93.9011 65.2566L83.5128 52.8565C83.2846 52.9945 83.0553 53.1771 82.7803 53.3141C82.551 53.45 82.3694 53.6347 82.1858 53.7696C81.0582 54.7459 80.0171 55.8179 79.0741 56.9736C78.0666 58.1627 77.3807 59.3995 76.9688 60.6799C76.8775 61.0005 76.7862 61.32 76.7395 61.6407C76.6482 61.9613 76.6482 62.3275 76.6482 62.6481C76.6482 63.2437 76.7395 63.7936 76.9688 64.3425C77.1992 64.8893 77.5198 65.4382 77.8393 65.9435ZM86.168 42.1466C86.2593 42.1009 86.305 42.0553 86.3517 42.0096C86.443 41.964 86.4886 41.964 86.6256 41.8726C86.6712 41.827 86.7625 41.7813 86.8092 41.69C86.8549 41.6444 86.9005 41.6444 86.9919 41.6444C88.1363 40.8216 89.1884 39.951 90.1949 39.0815C91.1557 38.1664 91.7958 36.9763 92.1165 35.5579V34.5048C92.1165 32.9941 91.5676 31.7593 90.5155 30.8442C89.509 29.929 88.3646 29.3802 87.1288 29.1965H85.9377C85.0225 29.2878 84.1074 29.6997 83.2835 30.3866C82.4597 31.0278 81.9565 32.0333 81.8652 33.3614C81.8652 33.407 81.8195 33.4983 81.8195 33.5907C81.7738 33.682 81.7739 33.7733 81.7739 33.9113C81.7739 33.9569 81.7282 34.0026 81.7282 34.0939C81.6825 34.1852 81.6825 34.2765 81.6825 34.4145C81.6825 35.559 82.0032 36.6567 82.6433 37.6175C83.2846 38.624 83.9704 39.5848 84.7029 40.4999C85.0236 40.7749 85.2518 41.0488 85.4811 41.3238L86.168 42.1466ZM194.119 37.2513V39.7674C194.119 46.632 192.974 53.0381 190.686 59.0322C188.398 65.0263 184.005 69.878 177.369 73.5843C175.264 74.9559 172.976 75.9634 170.414 76.7416C167.897 77.4731 165.38 78.022 162.864 78.3426C161.948 78.3893 161.078 78.4806 160.255 78.5273C159.386 78.5273 158.561 78.5719 157.738 78.5719H156.273C155.771 78.5719 155.312 78.5273 154.81 78.4339C148.678 78.0687 142.821 76.3754 137.101 73.3996C131.426 70.4715 126.804 66.4913 123.327 61.5037C121.588 58.8485 120.216 55.9651 119.162 52.9457C118.126 49.966 117.421 46.8814 117.059 43.7476C117.012 43.153 116.921 42.4661 116.874 41.826C116.874 41.1391 116.83 40.4532 116.83 39.7664C116.83 32.4908 118.704 25.5805 122.504 18.9909C126.302 12.4012 131.656 7.41352 138.565 4.02685C140.019 3.29857 141.536 2.70133 143.096 2.24221C144.652 1.73899 146.207 1.32707 147.854 0.915147C149.38 0.596878 150.924 0.367876 152.477 0.229306C154.033 0.0456543 155.543 0 157.008 0H158.106C164.053 0.136961 169.819 1.55637 175.449 4.16382C181.032 6.81795 185.882 10.4785 189.954 15.1466L178.972 23.1547C175.951 20.1799 172.794 17.8921 169.407 16.2444C166.033 14.6403 162.343 13.8117 158.608 13.8195C157.339 13.8287 156.071 13.9049 154.81 14.0478C153.457 14.2295 152.114 14.4739 150.783 14.7803C145.153 16.5193 140.945 19.769 138.061 24.5284C135.224 29.3324 133.804 34.3668 133.804 39.7664C133.804 40.1326 133.804 40.5445 133.851 41.0021C133.896 41.414 133.987 41.826 134.034 42.2379C134.034 42.4661 134.08 42.6954 134.125 42.8781C134.172 43.0607 134.172 43.29 134.172 43.5193C134.263 43.7019 134.31 43.8856 134.354 44.1138C134.401 44.3431 134.401 44.5714 134.401 44.7084C135.406 50.6112 137.924 55.2803 142.043 58.6203C146.161 61.9602 150.599 64.0188 155.404 64.7057C156.044 64.8883 156.777 64.9817 157.509 65.0263C158.24 65.073 158.927 65.073 159.568 65.073C164.143 65.073 168.17 63.8372 171.785 61.4113C175.355 58.9409 177.139 55.4639 177.139 50.8872L177.368 50.3829H158.698V37.2513H194.119ZM52.8087 85.3919H55.6911C57.7051 85.3919 59.3984 87.1755 59.3984 89.4188C59.3984 91.6154 57.7051 93.399 55.6911 93.4456H52.8087V85.3919ZM54.0445 86.3517V92.4838H55.3716C57.2029 92.4371 58.117 90.9741 58.117 89.4624C58.117 87.9081 57.2019 86.6256 55.6911 86.3984L54.0445 86.3517ZM64.2491 85.2072C66.7196 85.2072 68.6879 87.0842 68.6879 89.4188C68.6879 91.7534 66.7206 93.6283 64.2491 93.6283C61.8243 93.6283 59.8103 91.7534 59.8103 89.4188C59.8103 87.0842 61.8232 85.2072 64.2491 85.2072ZM64.2491 86.2147C66.0337 86.2147 67.4978 87.6331 67.4978 89.4188C67.4978 91.1578 66.0337 92.5762 64.2491 92.5762C62.5101 92.5762 61.0461 91.1578 61.0461 89.4188C61.048 88.5698 61.3861 87.7561 61.9863 87.1557C62.5865 86.5552 63.4001 86.2169 64.2491 86.2147ZM69.0541 85.3919H70.2442V92.4849H72.5321V93.4456H69.0541V85.3919ZM76.3753 85.1626C77.2905 85.1626 78.16 85.4366 78.8925 85.8941V87.3592C78.5878 86.9862 78.2037 86.686 77.7682 86.4803C77.3328 86.2746 76.8569 86.1686 76.3753 86.1701C74.5907 86.1701 73.1723 87.6331 73.1723 89.4188C73.1748 90.2676 73.513 91.081 74.1131 91.6813C74.7132 92.2816 75.5265 92.6201 76.3753 92.6228C77.3818 92.6228 78.2969 92.1653 78.8925 91.4338V92.9435C78.138 93.417 77.2661 93.6704 76.3753 93.6749C73.9505 93.6749 71.9365 91.7534 71.9365 89.4188C71.9365 87.0842 73.9505 85.1626 76.3753 85.1626ZM80.4945 92.4849H83.378V93.4456H79.2598V85.3919H83.378V86.3061H80.4945V88.6873H83.378V89.6481H80.4945V92.4849ZM87.907 92.8957C87.7741 93.0282 87.6193 93.1367 87.4494 93.2163C87.3125 93.3076 87.1288 93.3543 86.9462 93.399C86.9005 93.399 86.8549 93.399 86.8092 93.4456H86.6723C86.5353 93.4456 86.443 93.399 86.306 93.399C86.1754 93.3569 86.0519 93.2954 85.9397 93.2163C85.8484 93.125 85.7571 92.987 85.6658 92.849L85.5289 92.4381V92.3935V92.3468V92.3022V92.2088H85.5745V92.1642V92.1175C85.6202 91.8882 85.7115 91.7067 85.8951 91.524L86.444 91.1111L86.169 90.7002C86.0777 90.6089 86.0321 90.4263 86.0321 90.2893V90.2426V90.1513V90.1067C86.0777 90.1067 86.0777 90.06 86.0777 90.06C86.1235 89.8842 86.2189 89.7253 86.3527 89.6025C86.5353 89.5111 86.6733 89.4644 86.8559 89.4644H86.9929C87.1755 89.4644 87.4048 89.5578 87.5874 89.6938C87.6648 89.7718 87.7251 89.865 87.7646 89.9675C87.804 90.07 87.8218 90.1796 87.8167 90.2893C87.8167 90.5186 87.7711 90.7002 87.6331 90.8382C87.4505 91.0208 87.3125 91.1588 87.1298 91.2491L87.9993 92.3033C88.045 92.2099 88.1363 92.1186 88.2286 91.9806C88.3199 91.8893 88.3656 91.798 88.4569 91.7067L88.7319 91.9806C88.6862 92.074 88.5949 92.1653 88.5493 92.2566C88.5036 92.3479 88.4123 92.4392 88.321 92.5305L88.2753 92.5772C88.2753 92.5772 88.2753 92.6239 88.2297 92.6239L88.8699 93.3554H88.321L87.907 92.8957ZM86.8549 93.0337C87.0029 93.0299 87.1464 92.9819 87.2668 92.8957C87.3581 92.8044 87.4951 92.7131 87.5874 92.6218H87.6331L87.6787 92.5751L86.6723 91.4317C86.6723 91.4763 86.6723 91.4763 86.6266 91.4763L86.581 91.523C86.4897 91.5676 86.444 91.6143 86.3527 91.6589C86.2604 91.7523 86.2147 91.7969 86.169 91.8882C86.1234 91.8882 86.1234 91.9349 86.1234 91.9796C86.0777 92.0262 86.0777 92.0729 86.0777 92.1175C86.0321 92.1642 86.0321 92.2088 86.0321 92.2088V92.3468C86.0321 92.5295 86.0777 92.6675 86.2147 92.849C86.3681 92.9771 86.564 93.043 86.7636 93.0337H86.8549ZM86.4886 90.197V90.2883C86.4886 90.3796 86.4886 90.4709 86.5343 90.5622C86.5799 90.6556 86.6712 90.7469 86.7169 90.7915L86.8082 90.8849L86.8539 90.9295H86.8995C86.8995 90.9295 86.9452 90.9295 86.9452 90.8849C87.0365 90.8382 87.1278 90.7915 87.2201 90.7002C87.3073 90.6106 87.3702 90.5003 87.4027 90.3796V90.335V90.2883C87.4045 90.2281 87.3932 90.1683 87.3695 90.1129C87.3459 90.0575 87.3105 90.008 87.2658 89.9677C87.1823 89.9166 87.0882 89.8854 86.9908 89.8764H86.9452H86.8995C86.8082 89.8764 86.7159 89.8764 86.6245 89.9677C86.5827 89.9894 86.5478 90.0224 86.5238 90.0629C86.4998 90.1034 86.4876 90.1499 86.4886 90.197ZM95.3205 85.1159C96.0758 85.1182 96.8194 85.3023 97.4884 85.6529C98.1574 86.0035 98.732 86.5101 99.1637 87.1299L98.1116 87.6788C97.8172 87.2171 97.4115 86.8369 96.9318 86.5731C96.452 86.3093 95.9137 86.1704 95.3662 86.1691C93.5359 86.1691 92.1175 87.6321 92.1175 89.4178C92.1175 91.2034 93.5359 92.6218 95.3662 92.6218C96.8769 92.6218 98.0659 91.8882 98.1583 90.3339H95.5488V89.3711H99.4387V89.4178C99.4387 91.9349 98.0649 93.7185 95.3195 93.7185C92.574 93.7185 90.835 91.7969 90.835 89.4178C90.835 87.0386 92.85 85.1159 95.3205 85.1159ZM98.7528 93.4446L102.095 85.3909H102.871L106.213 93.4446H104.933L104.016 91.1568H100.95L100.034 93.4446H98.7528ZM101.407 90.1503L102.506 87.2689L103.558 90.1503H101.407ZM117.927 93.4446L121.221 85.3909H121.999L125.341 93.4446H124.058L123.144 91.1568H120.078L119.162 93.4446H117.927ZM120.536 90.1503L121.635 87.2689L122.731 90.1503H120.536ZM133.852 93.4446L137.192 85.3909H137.97L141.31 93.4446H140.03L139.069 91.1568H136.05L135.134 93.4446H133.852ZM136.505 90.1503L137.559 87.2689L138.658 90.1503H136.505ZM109.094 86.3061C109.919 86.3994 110.193 86.719 110.193 87.5418C110.193 88.32 109.644 88.7309 108.96 88.7309H107.905V86.305H109.094V86.3061ZM109.187 89.6917H109.231C109.827 89.6917 110.879 89.8297 110.879 91.1568C110.879 92.2089 109.963 92.4838 109.093 92.4838H109.278H107.904V89.6917H109.187ZM107.63 93.4446H109.69C111.108 93.4446 112.16 92.4838 112.16 91.1568C112.16 90.1046 111.52 89.3264 110.606 89.0069C111.108 88.6863 111.382 88.0907 111.382 87.3592C111.382 86.1701 110.606 85.3919 109.37 85.3919C108.73 85.3453 108.043 85.3919 107.403 85.3919H107.356H106.672V93.4456H107.63V93.4446ZM115.227 86.3061C116.005 86.3994 116.281 86.719 116.325 87.5418C116.325 88.32 115.776 88.7309 115.09 88.7309H114.037V86.305H115.227V86.3061ZM115.273 89.6917H115.318C115.913 89.6917 116.965 89.8297 116.965 91.1568C116.965 92.2089 116.051 92.4838 115.182 92.4838H115.409H114.037V89.6917H115.273ZM113.717 93.4446H115.823C117.241 93.4446 118.249 92.4838 118.249 91.1568C118.249 90.1046 117.607 89.3264 116.693 89.0069C117.241 88.6863 117.515 88.0907 117.515 87.3592C117.515 86.1701 116.693 85.3919 115.504 85.3919C114.817 85.3453 114.176 85.3919 113.49 85.3919H112.758V93.4456H113.717V93.4446ZM125.89 85.3919H126.666L132.296 91.3394V85.3919H133.395V93.4456H132.57L127.033 87.5429V93.4456H125.89V85.3919Z" fill="white"/>
</svg>
