<svg width="210" height="24" fill="none" xmlns="http://www.w3.org/2000/svg" xmlns:xlink="http://www.w3.org/1999/xlink">
<path style="fill:#ffffff; stroke:none;" d="M10 0L10 5L0 5L0 19L40 19L40 14L34 14L34 10L42 10L42 19L49 19L49 10L52 10L52 19L58 19L58 10L61 10L61 19L79 19L79 14L74 14L74 10L79 10L79 5L49 5L49 0L42 0L42 5L16 5L16 0L10 0z"/>
<path style="fill:#ffffff; stroke:none;" d="M86 0L86 19L121 19L121 24L127 24L127 5L116 5L116 0L109 0L109 5L92 5L92 0L86 0z"/>
<path style="fill:#ffffff; stroke:none;" d="M148 0L148 5L134 5L134 19L146 19L146 10L148 10L148 19L155 19L155 10L158 10L158 19L210 19L210 5L182 5L182 0L175 0L175 5L155 5L155 0L148 0z"/>
</svg>