<svg width="115" height="120" viewBox="0 0 115 120" fill="none" xmlns="http://www.w3.org/2000/svg">
<path d="M22.9543 16.6607V22.0379C21.0194 23.7569 16.3959 24.7794 12.9537 24.7794C9.51581 24.7794 0 22.6285 0 12.5219C0 2.41535 9.05743 0.238009 12.7113 0.238009C16.3695 0.238009 20.2657 0.907962 22.5224 2.41535V7.14469C22.5224 7.7353 21.7158 7.68241 21.7158 7.14469C21.6629 6.3381 19.512 1.50299 14.1349 1.60877C8.33019 1.72777 4.40751 6.28962 4.40751 12.306C4.40751 18.3223 8.22001 23.488 13.9762 23.3249C15.845 23.272 17.7931 22.6814 18.7363 21.8969L18.7584 16.6607C18.7584 15.1577 17.846 14.6199 16.9337 14.6199C16.3386 14.6199 16.3386 13.7605 16.9337 13.7605H24.779C25.3696 13.7605 25.3696 14.6728 24.779 14.6199C23.8711 14.6199 22.9543 15.1577 22.9543 16.6607ZM75.8488 7.1491C75.8488 7.73971 75.2582 7.68682 75.2582 7.1491C75.2009 6.34251 73.0545 1.34431 67.6773 1.4545C61.8726 1.5691 57.9455 6.29403 57.9455 12.3104C57.9455 18.3267 61.7095 23.6511 67.4613 23.4924C73.2131 23.3293 75.9546 17.6347 76.1706 16.881C76.3865 16.1273 76.7612 16.2375 76.7612 16.8281V21.2357C74.3988 22.9547 69.934 24.7838 66.4961 24.7838C63.0582 24.7838 53.5424 22.6329 53.5424 12.5263C53.5424 2.41535 62.5734 0 66.2272 0C69.8855 0 73.5922 0.912369 75.8532 2.41535V7.1491H75.8488ZM114.34 0.590616C115.199 0.590616 115.199 1.3972 114.34 1.3972C113.423 1.3972 112.51 1.93493 112.51 3.43791V21.3371C112.51 22.8401 113.423 23.3778 114.34 23.3778C115.199 23.3778 115.199 24.4533 114.34 24.4533H106.437C105.577 24.4533 105.577 23.3778 106.437 23.3778C107.354 23.3778 108.266 22.8401 108.266 21.3371V3.43791C108.266 1.93052 107.354 1.3972 106.437 1.3972C105.577 1.3972 105.577 0.590616 106.437 0.590616H114.34ZM51.4973 0.590616C52.3568 0.590616 52.3568 1.3972 51.4973 1.3972C50.585 1.3972 49.6726 1.93493 49.6726 3.43791L49.5669 15.1841C49.5669 20.8082 45.0051 24.9425 39.3767 24.9425C33.7483 24.9425 29.354 20.8082 29.354 15.1841V3.43791C29.354 1.93052 28.4373 1.3972 27.5249 1.3972C26.6654 1.3972 26.6654 0.590616 27.5249 0.590616H35.4804C36.3399 0.590616 36.3399 1.3972 35.4804 1.3972C34.5637 1.3972 33.6513 1.93493 33.6513 3.43791L33.6425 16.5549C33.6425 20.5217 36.8864 23.7392 40.8532 23.7392C44.82 23.7392 48.0374 19.7151 48.0374 15.7527L47.8435 3.43791C47.8435 1.93052 46.9312 1.3972 46.0144 1.3972C45.1593 1.3972 45.1593 0.590616 46.0144 0.590616H51.4973ZM58.8535 53.2524C63.6366 50.8901 68.901 49.6652 74.2357 49.6734C79.4585 49.6744 84.6135 50.8556 89.3158 53.1286C94.018 55.4017 98.1458 58.7079 101.391 62.8003C104.636 66.8927 106.914 71.6654 108.056 76.762C109.198 81.8586 109.173 87.1473 107.983 92.2329C106.794 97.3186 104.471 102.07 101.188 106.132C97.9044 110.193 93.7458 113.461 89.0225 115.69C84.2991 117.918 79.1332 119.051 73.9107 119.003C68.6881 118.955 63.5439 117.728 58.8623 115.412C54.1815 117.724 49.0389 118.949 43.8186 118.995C38.5983 119.04 33.435 117.906 28.7143 115.677C23.9936 113.448 19.8375 110.181 16.5562 106.121C13.2748 102.06 10.9531 97.311 9.76432 92.2275C8.57553 87.144 8.55039 81.8577 9.69077 76.7632C10.8312 71.6686 13.1076 66.8975 16.3502 62.806C19.5927 58.7145 23.7176 55.4083 28.4169 53.1343C33.1161 50.8604 38.2684 49.6773 43.4889 49.6734C49.0159 49.6734 54.2168 50.9604 58.8535 53.2524ZM65.8438 57.8054C71.2134 62.2931 75.0789 68.3184 76.9199 75.0699H69.7356C67.7181 69.3692 63.8979 64.4813 58.8535 61.1464C53.8187 64.4835 50.0055 69.3673 47.989 75.0611L40.8091 75.0655C42.673 68.3058 46.5501 62.2734 51.9249 57.7702C49.1916 56.9246 46.3456 56.4996 43.4845 56.5096C39.477 56.5135 35.5176 57.3832 31.8773 59.0591C28.237 60.7351 25.0018 63.1777 22.3931 66.2199C19.7843 69.2621 17.8635 72.832 16.7623 76.6853C15.6611 80.5386 15.4053 84.5843 16.0125 88.5457C16.6197 92.507 18.0756 96.2903 20.2805 99.6368C22.4854 102.983 25.3873 105.814 28.7875 107.935C32.1877 110.056 36.0061 111.417 39.9812 111.926C43.9563 112.435 47.9944 112.078 51.8191 110.882C48.319 107.925 45.443 104.3 43.3589 100.22C41.2749 96.1395 40.0245 91.6848 39.6808 87.1158H56.1737V94.0313L48.152 94.0269C50.211 99.5467 53.9649 104.273 58.8755 107.527C63.7862 104.278 67.5345 99.5496 69.5769 94.0269L61.5553 94.0313V87.1158H78.0482C77.6842 91.6862 76.4132 96.1383 74.3094 100.212C72.2056 104.286 69.3112 107.899 65.7953 110.842C69.9633 112.168 74.3853 112.493 78.7024 111.79C83.0195 111.088 87.1101 109.377 90.6421 106.797C94.174 104.217 97.0479 100.84 99.0304 96.9411C101.013 93.0422 102.048 88.7308 102.052 84.3568C102.056 79.9827 101.029 75.6694 99.0535 71.7669C97.0781 67.8643 94.2104 64.4825 90.6831 61.896C87.1558 59.3095 83.0684 57.5912 78.7526 56.8804C74.4368 56.1697 70.0142 56.4866 65.8438 57.8054ZM102.135 7.1491C102.135 7.73971 101.545 7.68682 101.545 7.1491C101.492 6.34251 99.3409 1.34431 93.9637 1.4545C88.159 1.5691 84.2319 6.29403 84.2319 12.3104C84.2319 18.3267 87.9959 23.6511 93.7477 23.4924C99.4995 23.3337 102.241 17.6347 102.457 16.881C102.673 16.1273 103.052 16.2375 103.052 16.8281V21.2357C100.685 22.9547 96.2247 24.7838 92.7825 24.7838C89.3446 24.7838 79.8288 22.6329 79.8288 12.5263C79.8288 2.41535 88.8598 0 92.518 0C96.1719 0 99.883 0.912369 102.14 2.41535V7.1491H102.135Z" fill="white"/>
</svg>
