<svg width="210" height="62" viewBox="0 0 210 62" fill="none" xmlns="http://www.w3.org/2000/svg">
<g clip-path="url(#clip0)">
<path d="M79.7468 0H49.498V29.3322H25.6656V0H0V61.4142H25.6656V35.3819L49.498 61.4142H79.7468L50.4147 29.3322" fill="white"/>
</g>
<path d="M201.567 47.1148C199.551 47.1148 198.542 46.0149 198.542 43.9983V29.4238H203.492V27.0406H198.542V21.2658L195.976 22.3658V27.0406H191.667V29.4238H195.976V43.0816C195.976 46.0149 195.701 49.5897 201.2 49.5897C202.117 49.5897 202.942 49.4064 203.859 49.2231V46.9315C203.125 47.0231 202.392 47.1148 201.567 47.1148Z" fill="white"/>
<path d="M187.543 17.416H190.109V48.8564H187.543V17.416Z" fill="white"/>
<path d="M183.876 33.5487C183.968 28.5072 180.943 26.3073 176.176 26.3073C172.052 26.3073 168.66 28.0489 168.018 32.4487H170.768C171.135 29.5155 173.335 28.6905 176.085 28.6905C179.201 28.6905 180.943 29.7905 181.218 33.3654V35.3819C178.01 35.5653 174.251 35.107 171.41 36.3902C168.752 37.3985 167.01 39.8734 167.01 42.715C167.01 47.0231 170.218 49.498 174.251 49.498C177.185 49.498 180.118 47.7564 181.035 45.9232L181.126 45.6482H181.218L181.31 48.8564H183.968C183.876 47.3898 183.693 45.6482 183.784 43.9066L183.876 33.5487ZM174.71 47.1148C172.052 47.1148 169.852 45.7399 169.852 42.8066C169.852 37.3069 177.551 38.0402 181.218 37.8568C181.493 42.44 180.393 47.1148 174.71 47.1148ZM157.111 26.3073C154.086 26.2156 151.244 27.7739 149.686 30.2488L149.594 30.1571V17.416H147.028V43.9066C147.028 45.5565 146.936 47.2981 146.844 48.8564H149.502L149.594 45.6482L149.686 45.4649C151.336 48.0314 154.177 49.5897 157.294 49.498C163.619 49.498 166.093 43.3566 166.093 37.8568C166.093 32.1737 163.619 26.3073 157.111 26.3073ZM157.019 47.1148C151.336 47.1148 149.594 42.44 149.594 37.4902C149.594 33.0904 151.519 28.7822 156.652 28.7822C161.602 28.7822 163.252 33.457 163.252 37.6735C163.252 41.7067 161.969 47.1148 157.019 47.1148ZM134.286 26.3073C127.32 26.3073 124.112 32.1737 124.112 37.8568C124.112 43.5399 127.32 49.498 134.286 49.498C141.253 49.498 144.461 43.6316 144.461 37.9485C144.461 32.2654 141.253 26.3073 134.286 26.3073ZM134.286 47.1148C129.062 47.1148 126.953 41.9817 126.953 37.9485C126.953 33.9153 129.062 28.7822 134.286 28.7822C139.511 28.7822 141.619 33.9153 141.619 37.9485C141.619 41.9817 139.511 47.1148 134.286 47.1148Z" fill="white"/>
<path d="M125.212 17.416H121.729L107.704 31.2571L107.612 17.416H104.863V48.8564H107.612L107.704 32.4487L122.737 48.8564H126.587L110.821 31.6238" fill="white"/>
<defs>
<clipPath id="clip0">
<rect width="85.6133" height="61.4142" fill="white"/>
</clipPath>
</defs>
</svg>
