<svg width="210" height="69"  fill="none" xmlns="http://www.w3.org/2000/svg" xmlns:xlink="http://www.w3.org/1999/xlink">
<path style="fill:#ffffff; stroke:none;" d="M1 1L1 58L22 58L13 68L72 68L72 10C63.4528 13.9859 56.6188 23.3872 50 30C47.803 32.195 44.4584 36.9444 41 36.9444C36.7089 36.9444 31.7611 29.7611 29 27C20.7116 18.7116 11.6791 5.98003 1 1z"/>
<path style="fill:#ffffff; stroke:none;" d="M81 30L82 44L84 44L84 39L85 39L87 44L90 44L92 39L93 39L93 44L95 44L95 30L94 30L89 40L81 30M103 30L97 44L110 44L103 30M160 30L155 40L148 31L148 44L150 44L150 38L151 38L156 44L158 39L159 39L159 44C163.4 41.1472 162 34.7447 162 30L160 30M170 30L165 44C170.253 41.67 171.703 42.4995 177 44L172 30L170 30M111 31L114 34L114 44L116 44L119 31L111 31M122 31L122 44L125 44L125 39L129 39L129 44L132 44L132 31L129 31L129 36L125 36L125 31L122 31M136 31L136 44L144 44L144 42L138 42L138 39L144 39L144 36L138 36L138 34L144 34L144 31L136 31M178 31L181 34L181 44L184 44L186 31L178 31M189 31L189 44L192 44L192 31L189 31M208 40C197.293 41.9406 198.353 35.5314 208 34C206.667 32.639 205.9 31.7264 203.941 31.2978C187.494 27.6993 199.998 54.5107 208 40z"/>
</svg>
