<svg width="167" height="95"  fill="none" xmlns="http://www.w3.org/2000/svg" xmlns:xlink="http://www.w3.org/1999/xlink">
<path style="fill:#ffffff; stroke:none;" d="M95 0L95 31C104.579 30.9947 118.514 35.3344 120 22L121 22L121 31L130 31L130 0L121 0L121 15L120 15C118.335 6.77772 111.115 4.58061 104 8L104 0L95 0z"/>
<path style="fill:#ffffff; stroke:none;" d="M132 0L132 7L141 7L141 0L132 0M0 7L0 31L9 31L9 15C16.5457 16.5735 13.5951 22.8076 17.6528 27.7863C23.5319 34.9997 36.2095 32.8869 40 25L41 25L41 39L50 39L50 30C59.3619 33.412 66.5003 30.7541 67 20L68 20C68.1831 28.5513 74.9618 36.5319 83 29L93 31L93 7L84 7C84 9.76437 85.4102 24.8422 79.4144 22.6543C75.3142 21.1582 77 10.3823 77 7L68 7L68 18L67 18C66.7909 9.35143 58.7071 1.77961 51 9L41 7L41 16L40 16C37.7748 5.00301 22.8688 2.45252 17 12L16 12L18 8L0 7M159 20C151.877 33.6459 150.868 4.91199 159 18L167 15C162.863 -5.31739 129.796 13.3968 146.133 28.7716C148.089 30.6123 150.347 31.6068 153 31.8904C155.575 32.1656 158.562 32.0538 160.995 31.1065C170.119 27.5549 165.092 22.3758 159 20M132 9L132 31L141 31L141 9L132 9z"/>
<path style="fill:#ffffff; stroke:none;" d="M52 40L52 43C47.8981 43.1402 40.0257 41.2133 39 46C33.6073 42.1251 22.2027 41.4937 17 46C12.8329 41.7474 5.64851 43.0119 0 43L0 54L4 54L4 47L5 47C6.87672 52.3071 12.7997 57.4789 17 51C21.1845 54.6244 34.7156 56.0654 38 51L39 51L39 54L43 54L43 48L46 48C46.9042 55.8556 63.1753 56.8995 67 51L68 51L68 54L167 54L167 43L68 43L68 50L67 50L67 44L57 45L57 40L52 40z"/>
<path style="fill:#ffffff; stroke:none;" d="M0 63L0 75L167 75L167 63L0 63z"/>
<path style="fill:#ffffff; stroke:none;" d="M0 84L0 95L167 95L167 84L0 84z"/>
</svg>
