<svg width="210" height="23" fill="none" xmlns="http://www.w3.org/2000/svg" xmlns:xlink="http://www.w3.org/1999/xlink">
<path style="fill:#ffffff; stroke:none;" d="M5 13C-6.49133 20.1598 10.8477 26.0033 17.4668 21.4275C26.9513 14.8707 17.3056 -1.75889 6.01852 1.43364C-0.438826 3.26008 -0.28051 10.1485 5 13M31.733 2.14352C19.2866 9.18406 30.0561 28.3116 42.6991 21.9105C55.7201 15.3179 44.2556 -4.94013 31.733 2.14352M55 1L55 23L61 23L61 15L62 15L67 20L69 15L70 15C70.0428 18.6135 74.4144 27.4851 76.6821 19.8519C79.939 8.88867 73.9921 -6.78318 66 10C63.0366 5.27927 60.9168 1.45549 55 1M104 23C103.74 15.0943 98.5722 16 92 16L92 15C97.1463 14.831 99.4214 13.3381 98 8C102.362 7.27206 102.863 5.17584 103 1C98.8329 1 90.0125 -0.672264 86.6034 2.02778C83.6535 4.36416 83.6535 19.6358 86.6034 21.9722C90.1613 24.7901 99.6371 23 104 23M125 16C121.153 16.7163 118.712 15.0236 115.045 14.9514C109.521 14.8426 111.461 20.4615 115.023 21.9907C123.192 25.4981 136.843 18.6616 128 10C138.398 -7.7342 96.5632 5.27727 116.045 13.412C118.906 14.6067 122.089 14.7714 125 16M139 1C139 6.06885 137.419 14.555 140.108 19.061C143.415 24.6024 153.248 24.293 156.427 18.8912C159.315 13.9854 158 6.4801 158 1L152 1C152 7.41818 153.477 14.8309 146 17C146 9.84707 148.253 1.30384 139 1M169 1C165.987 4.63686 162.702 7.86061 163.37 13C164.489 21.6152 174.959 26.5138 181.752 20.2762C190.642 12.1144 170.487 17.7797 170.485 11.9992C170.482 4.52919 178.845 11.0556 181.677 9.11034C190.154 3.28875 171.406 1.16553 169 1M192 1L192 23L198 23L198 14L204 14L204 23L210 23L210 1C205.11 1.38097 204.155 3.276 204 8L198 8C197.845 3.276 196.89 1.38097 192 1z"/>
</svg>
