<svg width="249" height="32" viewBox="0 0 249 32" fill="none" xmlns="http://www.w3.org/2000/svg">
<path fill-rule="evenodd" clip-rule="evenodd" d="M56.146 7.18671L57.1574 13.1372H56.5958C55.8093 9.43139 52.4411 7.85997 48.848 7.85997C48.2864 7.85997 47.7248 7.85997 46.9383 8.08486V18.3027H48.2864C51.2047 18.3027 53.0013 17.1782 53.0013 14.8218H53.5629V23.1301H53.1131C52.8881 21.3338 52.2148 19.0891 48.3981 19.0891H46.9383V28.5205C46.9383 30.0919 47.6116 30.9901 49.9698 30.9901V31.553H39.9755V30.9901C42.222 30.9901 43.0085 30.0919 43.0085 28.5205V10.2178C43.0085 8.75813 42.1102 7.74681 39.8638 7.74681V7.18671H56.146ZM76.3594 7.18671L77.3694 13.1372H76.8078C76.0213 9.43139 72.6517 7.85997 69.0586 7.85997C68.4984 7.85997 67.9354 7.85997 67.1503 8.08486V18.3027H68.4984C71.4167 18.3027 73.2147 17.1782 73.2147 14.8218H73.7749V23.1301H73.3265C73.1015 21.3338 72.4282 19.0891 68.6101 19.0891H67.1503V28.5205C67.1503 30.0919 67.8236 30.9901 70.1818 30.9901V31.553H60.1875V30.9901C62.4325 30.9901 63.2191 30.0919 63.2191 28.5205V10.2178C63.2191 8.75813 62.3208 7.74681 60.0744 7.74681V7.18671H76.3594ZM35.0357 7.18671V7.74681C33.3523 7.74681 32.3409 8.64498 32.3409 10.2178V28.5177C32.3409 30.2023 33.4641 30.9873 35.0357 30.9873V31.5502H25.6031V30.9873C27.2879 30.8769 28.2979 30.2023 28.2979 28.5177V10.2178C28.2979 8.64639 27.2879 7.74681 25.6031 7.74681V7.18671H35.0357ZM22.7951 0.561521L23.8051 7.85997H23.3567C21.8968 4.04243 19.3137 1.45969 14.2607 1.45969V27.2829C14.2607 30.0891 15.8323 30.9873 17.5172 30.9873V31.5502H6.28796V30.9873C7.861 30.9873 9.76932 30.0891 9.76932 27.2829V1.45969C4.60315 1.45969 2.24641 3.81754 0.449847 7.85997H0L0.786526 0.561521H22.7951ZM160.915 23.5785C160.915 27.396 163.611 30.2037 167.541 30.2037C169.226 30.2037 171.246 29.4158 172.594 27.7341L164.733 17.628C162.823 18.3027 160.915 20.3225 160.915 23.5785ZM171.696 8.53323C171.687 5.41301 170.336 3.81754 167.654 3.81754C164.958 3.81754 163.385 5.39038 163.385 7.97171C163.385 10.8911 167.316 14.9335 167.316 14.9335C170.461 13.1372 171.696 11.3409 171.696 8.53323ZM167.878 15.6068L174.617 24.0297C174.617 24.0297 175.289 22.6818 175.402 21.3338C175.402 19.7624 174.617 19.2008 173.269 18.9774V18.5276H180.568C180.568 18.5276 180.679 18.9774 180.568 18.9774C179.22 19.2008 178.209 19.6492 177.197 20.4356C176.412 21.447 175.962 22.3451 175.064 24.5912L178.209 28.4088C179.557 29.9802 181.353 30.8784 183.262 30.9887V31.5516H175.401V30.9887L173.154 28.2956C171.245 30.2051 168.214 31.8897 165.183 31.8897C160.353 31.8897 157.209 29.1938 157.209 25.4894C157.209 21.4484 161.027 18.8642 164.058 16.843C164.058 16.843 160.8 13.1386 160.8 9.77086C160.8 5.95473 163.72 3.03394 167.763 3.03394C171.358 3.03394 174.164 5.61669 174.164 8.76096C174.166 12.3508 170.011 13.9236 167.878 15.6068ZM216.836 0L217.173 9.76803H216.613C215.601 4.26591 212.009 1.12305 207.403 1.12305C201.902 1.12305 198.084 7.52333 198.084 16.0566C198.084 26.7228 202.35 31.1018 208.191 31.1018C214.253 31.1018 216.613 25.488 217.174 21.447H217.734V25.7129C216.726 27.5106 213.693 31.6634 207.293 31.6634C199.206 31.6634 192.918 25.0382 192.918 16.1697C192.918 8.08628 199.994 0.674678 207.293 0.674678C211.56 0.674678 212.681 2.47242 214.366 2.47242C215.601 2.47242 216.163 1.686 216.276 0.00141365H216.836V0ZM246.369 27.0594C247.604 27.0594 248.615 28.0707 248.615 29.3055C248.615 30.5403 247.604 31.4385 246.369 31.4385C245.134 31.4385 244.123 30.5403 244.123 29.3055C244.123 28.0707 245.134 27.0594 246.369 27.0594ZM224.249 18.976C224.249 26.4979 227.166 31.1004 231.772 31.1004C236.488 31.1004 239.405 26.8345 239.405 18.976C239.405 11.7893 236.825 7.74681 231.882 7.63507C226.83 7.52333 224.249 12.3508 224.249 18.976ZM231.66 7.07355C238.608 7.08769 244.461 12.3607 244.461 19.4229C244.461 26.2716 238.959 31.5502 231.883 31.5502C224.921 31.5502 219.083 26.0467 219.083 19.4229C219.083 12.8006 224.81 7.07355 231.66 7.07355ZM85.9038 12.3508L90.0585 22.3437H81.8608L85.9038 12.3508ZM99.378 30.9887C98.4797 30.9887 97.8063 30.2037 97.3565 29.6436C97.0198 29.0806 87.5872 5.95191 87.5872 5.95191L78.9411 27.0594C77.931 29.7525 76.5829 30.9873 74.6746 30.9873V31.5502H81.7477V30.9873C80.2892 30.8769 79.3895 30.2023 79.3895 29.1909C79.3895 28.4059 81.6345 23.017 81.6345 23.017H90.1688C90.1688 23.017 92.527 28.0693 92.6388 29.1909C92.7519 30.0891 91.4038 30.9873 90.0557 30.9873V31.5502H99.3751V30.9887H99.378ZM103.309 27.2829C103.309 29.529 101.849 30.5403 100.278 30.9873V31.5502H107.352V30.9873C105.331 30.5403 104.207 29.191 104.207 27.2829V11.454L120.715 32V12.2405C120.715 9.43281 122.286 7.74823 124.083 7.74823V7.18812H116.11V7.63648C118.356 8.31117 119.928 9.65771 119.928 12.2405V24.3677L106.228 7.18812H99.7146V7.63648C102.521 7.74822 103.308 10.1061 103.308 10.6676V27.2829H103.309ZM124.981 7.74681C125.981 7.74681 126.22 7.75388 127.003 9.2065C127.003 9.2065 134.525 21.2221 134.525 21.3324V28.5177C134.525 30.0891 133.177 30.9873 131.157 31.1004V31.5502H141.601V31.1004C139.692 30.9873 138.457 30.0891 138.457 28.5177V20.0976C138.457 20.0976 143.283 11.4526 143.733 10.6662C144.855 8.86987 146.427 7.74682 148.336 7.52192V7.18529H139.802L139.915 7.52192C142.609 7.52192 143.283 10.1047 142.272 11.6761L137.892 19.7596L132.504 10.3296C131.603 8.86987 132.727 7.52192 134.748 7.52192V7.18529H124.978V7.74681H124.981Z" fill="white"/>
</svg>
