<svg width="204" height="106" viewBox="0 0 204 106" fill="none" xmlns="http://www.w3.org/2000/svg" xmlns:xlink="http://www.w3.org/1999/xlink">
<path style="fill:#ffffff; stroke:none;" d="M1 3C1 16.8454 -3.19599 38.8544 4.35262 50.9599C12.3942 63.8559 37.333 62.7463 43.9498 48.9961C49.8248 36.7876 46 16.3267 46 3L37 3C37 14.4979 41.3421 37.2809 34.0301 46.7755C28.5318 53.915 15.1322 51.8318 11.4336 43.9954C6.42407 33.3811 10 14.5974 10 3L1 3M50 3L50 60C60.1786 60 74.2601 62.058 82.9568 55.49C93.4739 47.547 92.5447 27.0383 81.9954 19.6528C75.2225 14.9111 65.8166 16 58 16L58 3L50 3M127 59L127 51C117.594 51 108.241 52.3801 102 44L134 44C134.62 39.0674 134.85 34.875 133.51 30C129.601 15.7787 108.93 10.9228 98.3295 21.3403C86.3172 33.1456 93.0779 55.7895 109 59.1813C115.159 60.4933 120.848 59.4855 127 59M136 59L144 59C144 50.5546 141.569 37.5363 146.09 30.0432C150.716 22.3745 161.227 22.7331 164.91 31.0154C168.275 38.5792 166 50.8206 166 59L174 59C174 50.8423 171.683 38.4229 175.457 31.0046C179.973 22.1274 191.619 22.525 195.258 32.0008C198.13 39.4812 196 51.0393 196 59L204 59C204 49.581 206.562 35.6816 202.583 27.0008C196.863 14.525 179.454 12.235 171 23C160.151 13.7829 142.624 13.1402 137.109 29C134.035 37.84 136 49.7255 136 59z"/>
<path style="fill:#ffffff; stroke:none;" d="M15 70C15.0018 85.8825 26 85.9201 26 70L23 70L23 80L18 80L18 70L15 70M40 70L40 83C45.3283 81.2315 43.7211 75.7052 44 71L40 70M54 83L52 74L52 73L54 70C43.9889 71.398 42.1108 84.2161 54 83M76 70L76 83C88.9505 82.9628 88.3575 70.146 76 70M116 70L116 83L119 83L119 70L116 70M122 70L122 83L125 83L125 70L122 70M138 70L138 83L142 83L142 70L138 70M177 70L177 74C167.619 72.6588 169.822 84.0404 180 83L180 70L177 70M29 73L29 83L32 83L35 76L35 83L38 83C37.9739 75.6041 36.4179 73.5277 29 73M59.1443 74.0718C53.9918 76.792 57.3758 85.2556 62.8526 82.7122C68.2568 80.2026 64.7487 71.113 59.1443 74.0718z"/>
<path style="fill:#ffffff; stroke:none;" d="M89 73L88 83L91 83L95 76L94 73L89 73M96 74C96.0404 81.02 95.7994 83.8388 104 83C103.978 76.8215 103.141 72.5264 96 74M109 79L109 80L106 80L106 83C111.973 83.7847 116.721 78.6853 109 77L109 76L114 76C110.727 71.4292 103.899 75.6037 109 79M136 83C135.994 81.376 136.128 79.6292 135.852 78.0193C133.887 66.5596 119.17 85.2049 136 83M145 73L144 83L147 83L151 76L150 73L145 73M152 74C152.04 81.02 151.799 83.8388 160 83C159.978 76.8215 159.141 72.5264 152 74M191 83C190.994 81.376 191.128 79.6292 190.852 78.0193C188.982 67.1159 175.468 80.6153 186.975 83.2801C188.243 83.5739 189.76 83.1624 191 83z"/>
<path style="fill:#ffffff; stroke:none;" d="M37 89L36 93C25.6748 94.6329 30.8448 102.904 39 103L37 89M106 89L106 94C96.4115 91.8691 98.2423 102.885 108 103L106 89M19 90L19 103L28 103L28 100L22 100L22 98L28 98L28 95L22 95L22 93L29 92L19 90M41 90L41 103C46.5778 101.149 44.7112 94.8724 45 90L41 90M128 103L131 103L131 97L132 97L134 103L138 99L139 99L143 103C143 93.9972 138.082 85.1792 136 99C130.527 86.7426 128 92.6725 128 103M145 93C145.006 100.657 146.027 102.972 154 103C154 99.2325 155.413 93.9456 151 93L152 90L145 93M164 90C164.289 94.8724 162.422 101.149 168 103L168 90L164 90M49 91C44.8853 95.4871 46.8301 105.934 54 101C64.6019 108.98 64.4715 86.1055 53 96L49 91M65 93C63.7507 97.2372 63.2248 101.415 68 103L71 93L65 93M75 96L75 97C66.7396 99.7455 75.7942 102.985 80 103C80 100.607 77.5885 87.1423 72.8333 94.2222C71.7972 95.7649 74.3599 95.8626 75 96M85 99L85 100L81 100C84.852 105.937 92.0871 99.3556 85 97L85 96L89 96C85.3722 90.4304 78.4031 96.7856 85 99M119 100L113 100L113 99L119 99C118.259 94.3506 111.621 90.2559 110.377 97.054C109.307 102.897 116.282 104.187 119 100z"/>
<path style="fill:#ffffff; stroke:none;" d="M159 99L159 100L155 100C158.852 105.937 166.087 99.3555 159 97L159 96L163 96C159.372 90.4304 152.403 96.7856 159 99M178 100L172 99L172 97L178 96C169.083 82.3131 168.89 113.999 178 100M179 96L183 96L183 97C174.74 99.7455 183.794 102.985 188 103C187.982 97.8023 184.418 88.3411 179 96z"/>
</svg>
